<svg width="77" height="77" xmlns="http://www.w3.org/2000/svg" xmlns:xlink="http://www.w3.org/1999/xlink" xml:space="preserve" overflow="hidden"><g><path d="M51.7344 16.1965 51.7344 67.375 15.6406 67.375 15.6406 16.1989 15.6406 16.2001C16.3481 16.6091 17.1698 16.8438 18.0469 16.8438 18.5041 16.8438 18.9384 16.7595 19.3571 16.6404 19.8179 18.8181 21.7477 20.4531 24.0625 20.4531 24.2791 20.4531 24.486 20.417 24.6953 20.3894 25.5195 21.856 27.0727 22.8594 28.875 22.8594 30.3212 22.8594 31.6025 22.2085 32.4844 21.1991 33.3663 22.2085 34.6476 22.8594 36.0938 22.8594 36.1503 22.8594 36.2032 22.8449 36.2586 22.8425 36.4318 23.5211 36.7495 24.1347 37.1766 24.6641 36.51 25.4906 36.0938 26.5277 36.0938 27.6719 36.0938 30.3296 38.2485 32.4844 40.9062 32.4844 43.564 32.4844 45.7188 30.3296 45.7188 27.6719 45.7188 26.5277 45.3025 25.4906 44.6347 24.6641 45.3025 23.8375 45.7188 22.8004 45.7188 21.6562 45.7188 21.0571 45.596 20.4904 45.3963 19.961 46.7161 19.3222 47.7075 18.113 48.0191 16.6404 48.4366 16.7595 48.8709 16.8438 49.3281 16.8438 50.2052 16.8438 51.0281 16.6091 51.7356 16.1989Z" fill="#F2C351"/><path d="M51.7344 74.5938 15.6406 74.5938C13.647 74.5938 12.0312 72.978 12.0312 70.9844 12.0312 68.9908 13.647 67.375 15.6406 67.375L51.7344 67.375C53.728 67.375 55.3438 68.9908 55.3438 70.9844 55.3438 72.978 53.728 74.5938 51.7344 74.5938Z" fill="#D5CEC2"/><path d="M51.7344 51.7344 57.75 51.7344C59.0795 51.7344 60.1562 50.6576 60.1562 49.3281L60.1562 28.875C60.1562 27.5455 59.0795 26.4688 57.75 26.4688L51.7344 26.4688 51.7344 21.6562 57.75 21.6562C61.7372 21.6562 64.9688 24.8878 64.9688 28.875L64.9688 49.3281C64.9688 53.3153 61.7372 56.5469 57.75 56.5469L51.7344 56.5469Z" fill="#D5CEC2"/><path d="M50.1787 7.30417C49.4533 6.63283 48.522 6.19489 47.4885 6.07217 46.6632 4.60917 45.1124 3.60938 43.3125 3.60938 42.4799 3.60938 41.7087 3.84037 41.0266 4.21214 40.1447 3.1197 38.8104 2.40625 37.2969 2.40625 36.4162 2.40625 35.6005 2.66011 34.8906 3.07398 34.1808 2.66011 33.3651 2.40625 32.4844 2.40625 31.3402 2.40625 30.3031 2.82253 29.4766 3.49027 28.65 2.82253 27.6129 2.40625 26.4688 2.40625 24.6665 2.40625 23.1132 3.40966 22.2891 4.87627 22.0798 4.84859 21.8728 4.8125 21.6562 4.8125 19.8564 4.8125 18.3055 5.8123 17.4802 7.2753 15.0932 7.55923 13.2344 9.56725 13.2344 12.0312 13.2344 14.689 15.3892 16.8438 18.0469 16.8438 18.5041 16.8438 18.9384 16.7595 19.3571 16.6404 19.8179 18.8181 21.7477 20.4531 24.0625 20.4531 24.2791 20.4531 24.486 20.417 24.6953 20.3894 25.5195 21.856 27.0727 22.8594 28.875 22.8594 30.3212 22.8594 31.6025 22.2085 32.4844 21.1991 33.3663 22.2085 34.6476 22.8594 36.0938 22.8594 36.1503 22.8594 36.2032 22.8449 36.2586 22.8425 36.4318 23.5211 36.7495 24.1347 37.1766 24.6641 36.51 25.4906 36.0938 26.5277 36.0938 27.6719 36.0938 30.3296 38.2485 32.4844 40.9062 32.4844 43.564 32.4844 45.7188 30.3296 45.7188 27.6719 45.7188 26.5277 45.3025 25.4906 44.6347 24.6641 45.3025 23.8375 45.7188 22.8004 45.7188 21.6562 45.7188 21.0571 45.596 20.4904 45.3963 19.961 46.7161 19.3222 47.7075 18.113 48.0191 16.6404 48.4366 16.7595 48.8709 16.8438 49.3281 16.8438 51.9858 16.8438 54.1406 14.689 54.1406 12.0312 54.1406 9.6647 52.4298 7.70722 50.1787 7.30417Z" fill="#E7E4DD"/><path d="M22.8594 62.5625C21.5299 62.5625 20.4531 61.4857 20.4531 60.1562L20.4531 38.5C20.4531 37.1705 21.5299 36.0938 22.8594 36.0938 24.1888 36.0938 25.2656 37.1705 25.2656 38.5L25.2656 60.1562C25.2656 61.4857 24.1888 62.5625 22.8594 62.5625Z" fill="#F7D881"/><path d="M33.6875 62.5625C32.358 62.5625 31.2812 61.4857 31.2812 60.1562L31.2812 38.5C31.2812 37.1705 32.358 36.0938 33.6875 36.0938 35.017 36.0938 36.0938 37.1705 36.0938 38.5L36.0938 60.1562C36.0938 61.4857 35.017 62.5625 33.6875 62.5625Z" fill="#F7D881"/><path d="M44.5156 62.5625C43.1862 62.5625 42.1094 61.4857 42.1094 60.1562L42.1094 38.5C42.1094 37.1705 43.1862 36.0938 44.5156 36.0938 45.8451 36.0938 46.9219 37.1705 46.9219 38.5L46.9219 60.1562C46.9219 61.4857 45.8451 62.5625 44.5156 62.5625Z" fill="#F7D881"/></g></svg>