<svg width="46" height="89" xmlns="http://www.w3.org/2000/svg" xmlns:xlink="http://www.w3.org/1999/xlink" xml:space="preserve" overflow="hidden"><defs><clipPath id="clip0"><rect x="0" y="0" width="46" height="89"/></clipPath><radialGradient cx="177.45" cy="497.864" r="2.90307" gradientUnits="userSpaceOnUse" spreadMethod="pad" id="fill1" gradientTransform="matrix(0.234965 0 0 0.165737 -19.903 -67.8252)"><stop offset="0" stop-color="#000007"/><stop offset="0.27" stop-color="#6DB9FF"/><stop offset="0.575792" stop-color="#4168FF"/><stop offset="0.604915" stop-color="#FFFFFF"/><stop offset="1" stop-color="#FFFFFF"/></radialGradient><radialGradient cx="145.904" cy="574.545" r="1.92508" gradientUnits="userSpaceOnUse" spreadMethod="pad" id="fill2" gradientTransform="matrix(0.267338 0 0 0.145668 -19.903 -67.8252)"><stop offset="0" stop-color="#000007"/><stop offset="0.27" stop-color="#6DB9FF"/><stop offset="0.575792" stop-color="#4168FF"/><stop offset="0.604915" stop-color="#FFFFFF"/><stop offset="1" stop-color="#FFFFFF"/></radialGradient></defs><g clip-path="url(#clip0)"><path d="M25.9555 10.7805C25.9555 10.7805 27.1374 10.5442 27.9647 11.2533 28.7921 11.9625 32.4561 16.9266 34.1107 19.7631 35.7654 22.5997 37.9645 25.0319 44.2731 42.1419 43.6822 43.0875 43.8024 41.6287 42.857 42.8106 41.9114 43.9925 42.0296 43.6379 40.3749 43.6379 38.7202 43.6379 36.0018 43.4015 35.6472 44.1107 35.2926 44.8198 33.9925 45.4108 33.2834 45.0562 32.5742 44.7016 30.3286 44.2289 29.5012 44.7016 28.6739 45.1744 26.6647 30.5186 25.2464 29.6912 23.828 28.8639 17.8002 23.8999 17.2093 24.3726 16.6183 24.8454 18.8639 22.8361 19.2186 21.2997 19.5731 19.7631 19.1003 15.0355 19.8095 14.5627 20.5186 14.0899 25.9555 10.7805 25.9555 10.7805Z" stroke="#000000" stroke-width="0.197339" stroke-opacity="0.194595" fill="#FFFFFF" fill-rule="evenodd" transform="matrix(1 0 0 1.00037 -5.75244 -4.71163)"/><path d="M29.3508 37.0407 33.2189 36.6968 34.5083 37.1266 33.2189 39.8772 28.5772 40.8228 27.03 38.8458 29.3508 37.0407Z" stroke="#000000" stroke-width="0.197339" fill="#FFFFFF" fill-rule="evenodd" transform="matrix(1 0 0 1.00037 -5.75244 -4.71163)"/><path d="M16.8697 36.3812 16.7862 33.7068 15.6161 31.9518 15.9504 28.5252 17.7055 26.7701 28.8208 27.1044 30.6595 29.7788 30.743 31.6174C30.743 31.6174 29.6566 34.7097 29.4058 35.8797 29.1551 37.0497 28.3194 38.7212 28.5701 39.2227 28.8208 39.7241 30.2416 39.6405 30.9938 40.3092 31.746 40.9777 32.4981 44.07 32.8324 45.1565 33.1667 46.2429 34.4204 54.5168 35.0054 56.3554 35.5904 58.194 36.6768 65.7157 39.4348 68.5573 42.1927 71.3988 47.2907 75.7447 50.9681 77.834 54.6453 79.9234 62.5013 80.9263 63.1699 83.6006 63.8385 86.275 64.6743 87.1107 62.3341 89.033 59.9941 90.9552 57.9882 90.8716 54.896 91.9581 51.8038 93.0446 42.9449 95.3846 39.9363 95.7189 36.9276 96.0531 38.8498 96.1368 36.7604 96.8053 34.6711 97.4743 26.7315 97.3906 23.7228 96.4711 20.7142 95.5518 19.7112 94.716 17.3712 95.1339 15.0311 95.5518 10.2161 94.4653 10.2161 94.4653 10.2161 94.4653 13.0949 69.0587 13.0949 65.8829 13.0949 62.707 13.7775 51.7356 14.6968 49.1449 15.6161 46.554 16.8697 44.9058 17.0368 42.3149 17.204 39.7241 16.8697 36.3812 16.8697 36.3812Z" stroke="#000000" stroke-width="0.197339" fill="#FFFFFF" fill-rule="evenodd" transform="matrix(1 0 0 1.00037 -5.75244 -4.71163)"/><path d="M14.738 46.6679C14.738 46.6679 14.1363 48.3871 14.1363 49.9343 14.1363 51.4816 14.2222 50.9658 14.9099 49.7625 15.5976 48.559 15.5976 44.7768 14.738 46.6679Z" stroke="#000000" stroke-width="0.197339" fill="#FFFFFF" fill-rule="evenodd" transform="matrix(1 0 0 1.00037 -5.75244 -4.71163)"/><path d="M17.3275 11.9384C17.3275 11.9384 17.0911 10.893 17.5639 9.84768 18.0366 8.80232 19.5731 8.14897 19.6913 7.36494 19.8095 6.58091 19.2186 5.66621 20.0459 5.2742 20.8733 4.88218 22.528 4.22883 22.7643 4.35949 23.0006 4.49017 24.3008 4.75151 24.7736 5.53554 25.2464 6.31957 26.5464 6.71158 26.7828 8.54098 26.5464 8.93299 25.9555 9.58635 25.8373 9.97838 25.7191 10.3704 26.1919 11.6771 26.1919 11.6771L25.01 13.5064 20.0459 11.1544 17.3275 11.9384Z" stroke="#000000" stroke-width="0.197339" fill-rule="evenodd" transform="matrix(1 0 0 1.00037 -5.75244 -4.71163)"/><path d="M30.0385 43.0577C30.1245 43.7454 30.6401 49.0748 30.2104 50.8799 29.7806 52.685 29.0929 55.0918 30.898 53.0288 32.7031 50.9658 33.9066 50.622 33.3049 48.7309 32.7031 46.8398 31.1559 41.2526 31.1559 41.2526 31.1559 41.2526 29.7806 40.9088 30.0385 43.0577Z" stroke="#000000" stroke-width="0.197339" fill="#FFFFFF" fill-rule="evenodd" transform="matrix(1 0 0 1.00037 -5.75244 -4.71163)"/><path d="M13.8414 42.6707C13.8414 42.6707 13.2007 41.7097 13.0939 40.8554 12.9872 40.0011 12.6668 38.2926 12.8804 37.4382 13.0939 36.5839 13.7347 34.8754 13.8414 34.3414 13.9482 33.8075 13.9482 32.9533 14.1618 32.2057 14.3754 31.4582 15.0161 29.4293 15.1229 28.575 15.2297 27.7207 15.55 25.4782 15.8704 24.7307 16.1907 23.9832 17.4722 23.1289 18.1129 23.0221 18.7536 22.9154 21.9572 21.3136 21.9572 21.3136L22.064 20.2457C22.064 20.2457 19.5011 18.5371 19.2875 18.0031 19.074 17.4693 18.9672 16.9353 18.7536 16.5081 18.54 16.081 18.1129 15.9743 17.8993 15.4403 17.6857 14.9064 17.2586 14.1588 17.2586 13.4113 17.2586 12.6638 17.4722 11.7028 17.8993 11.8096 18.3265 11.9163 18.8603 11.1688 19.9283 10.9553 20.9961 10.7417 22.5979 11.0621 23.3454 11.7028 24.0929 12.3435 24.5201 13.7318 24.8404 13.3046 25.1608 12.8775 25.2676 13.091 25.2676 13.091 25.2676 13.091 25.1608 12.13 25.4811 11.9163 25.8015 11.7028 26.1219 11.596 26.2286 12.13 26.3354 12.6638 26.7626 13.7318 26.5489 14.2656 26.3354 14.7996 26.4422 15.7606 26.4422 15.7606L27.5101 20.2457C27.5101 20.2457 28.4711 21.5271 29.7526 22.1679 31.034 22.8085 32.8494 23.3425 33.3833 23.8764 33.9172 24.4104 34.8783 25.6917 34.985 26.7597 35.0919 27.8275 35.8394 31.8853 36.1597 33.1668 36.4801 34.4483 36.8005 36.7976 36.6937 37.7586 36.5869 38.7197 35.9462 40.0011 35.0919 40.7486 34.2375 41.4961 31.8883 42.564 31.1407 42.6707 30.3932 42.7775 29.7526 42.8844 29.4322 43.3115 29.1119 43.7387 26.3354 45.1268 25.6947 45.1268 25.054 45.1268 24.1997 44.6997 24.1997 44.6997 24.1997 44.6997 25.054 44.8065 25.6947 44.3793 26.3354 43.9522 26.4422 43.8454 26.4422 43.8454 26.4422 43.8454 26.2286 43.8568 25.5879 44.0703 24.9472 44.284 24.1997 44.4862 23.8793 44.4862 23.559 44.4862 23.2386 44.059 23.2386 44.059 23.2386 44.059 23.6227 43.7977 24.5839 43.5841 25.5449 43.3706 25.9083 42.8844 25.9083 42.8844 25.9083 42.8844 23.559 43.8454 23.1318 43.7387 22.7046 43.6319 22.7046 43.3115 22.7046 43.3115 22.7046 43.3115 23.7726 42.7775 24.1997 42.564 24.6268 42.3504 25.5879 41.7097 25.5879 41.7097L24.1432 42.3209C23.8477 42.439 23.2661 42.7159 22.4911 43.0979 22.2776 42.564 22.8115 42.1369 23.6658 41.6029 24.5201 41.069 25.4811 40.2147 26.1219 40.3214 26.7626 40.4282 27.7236 40.7486 28.2576 40.5351 28.7915 40.3214 33.4901 38.1857 33.4901 38.1857 33.4901 38.1857 33.0629 35.6229 32.7426 34.4483 32.4222 33.2736 31.2476 32.099 31.1407 31.2446 31.034 30.3903 31.034 29.9632 31.034 29.9632L30.8204 31.7786C30.8204 31.7786 30.0729 29.0022 28.7915 28.4682 27.5101 27.9343 28.044 27.7207 26.5489 27.6139 25.054 27.5072 22.8115 28.2547 21.6368 28.3615 20.4622 28.4682 18.8603 27.5072 17.7925 27.5072 16.7247 27.5072 16.4043 28.575 16.4043 28.575 16.4043 28.575 15.55 30.3903 15.9772 31.8853 16.4043 33.3803 16.7247 33.5939 16.7247 33.5939L16.7247 36.2636C16.7247 36.2636 15.8704 37.1179 15.8704 37.9722 15.8704 38.8264 15.8704 41.3894 16.1907 41.8165 16.5111 42.2436 16.9382 43.2047 16.9382 43.2047 16.9382 43.2047 18.5391 45.269 18.3024 45.9876L17.1518 46.515 15.7635 47.049C15.7635 47.049 15.0161 46.7287 14.589 46.3015 14.1618 45.8743 14.2686 45.4472 14.1618 44.4862 14.055 43.525 13.8414 42.6707 13.8414 42.6707Z" stroke="#000000" stroke-width="0.197339" fill="#AA7338" fill-rule="evenodd" transform="matrix(1 0 0 1.00037 -5.75244 -4.71163)"/><path d="M21.1687 15.0355C21.1687 15.0355 21.2869 14.7991 21.5233 14.6218 21.7596 14.4445 21.8779 14.3263 22.1733 14.3263 22.4688 14.3263 22.4097 14.2673 22.4097 14.2673 22.4097 14.2673 22.3507 14.6218 22.1143 14.7991 21.8779 14.9764 21.7596 15.0355 21.5233 15.0946 21.2869 15.1536 21.1687 15.0355 21.1687 15.0355Z" stroke="#000000" stroke-width="0.118403" fill="url(#fill1)" fill-rule="evenodd" transform="matrix(1 0 0 1.00037 -5.75244 -4.71163)"/><path d="M18.6275 16.0401C18.6275 16.0401 18.8049 15.6264 19.1595 15.6264 19.514 15.6264 19.5731 15.7447 19.5731 15.7447 19.5731 15.7447 19.6323 15.981 19.3367 16.0401 19.0412 16.0992 18.9822 16.1583 18.6275 16.0401Z" stroke="#000000" stroke-width="0.0789353" fill="url(#fill2)" fill-rule="evenodd" transform="matrix(1 0 0 1.00037 -5.75244 -4.71163)"/><path d="M20.4005 14.3263C20.4005 14.3263 20.696 13.8536 21.0505 13.6172 21.4051 13.3808 21.8779 13.3217 21.8779 13.3217" stroke="#000000" stroke-width="0.197339" fill="none" fill-rule="evenodd" transform="matrix(1 0 0 1.00037 -5.75244 -4.71163)"/><path d="M18.9822 15.0946C18.9822 15.0946 18.5094 14.9764 18.2139 15.0946 17.9184 15.2128 17.9184 15.1536 17.9184 15.1536" stroke="#000000" stroke-width="0.197339" fill="none" fill-rule="evenodd" transform="matrix(1 0 0 1.00037 -5.75244 -4.71163)"/><path d="M19.6913 15.1536C19.6913 15.1536 19.9868 15.39 20.105 16.0992 20.2232 16.8083 19.9868 17.4584 20.2232 17.5175 20.4596 17.5766 20.8733 17.6357 21.1097 17.3994 21.346 17.163 21.4642 17.0447 21.4642 17.0447" stroke="#000000" stroke-width="0.138137" fill="none" fill-rule="evenodd" transform="matrix(1 0 0 1.00037 -5.75244 -4.71163)"/><path d="M20.6016 18.7351C20.6016 18.7351 20.9109 18.5066 21.2064 18.3883 21.5018 18.2702 21.7106 18.1972 22.0061 18.079 22.3016 17.9608 22.9812 17.6211 22.9812 17.6211 22.9812 17.6211 22.8334 18.1972 22.3016 18.5518 21.7697 18.9063 21.3284 19.2324 20.6016 18.7351Z" fill="#CF0000" fill-rule="evenodd" transform="matrix(1 0 0 1.00037 -5.75244 -4.71163)"/><path d="M25.8373 12.9671C25.8373 12.9671 26.1919 13.0263 26.0737 13.5581 25.9555 14.0899 25.8373 13.8536 25.8373 13.8536" stroke="#000000" stroke-width="0.197339" fill="none" fill-rule="evenodd" transform="matrix(1 0 0 1.00037 -5.75244 -4.71163)"/><path d="M26.0146 14.7991C26.0146 14.7991 25.7191 15.39 26.0737 15.6264 26.4283 15.8628 26.1919 15.0946 26.0146 14.7991Z" stroke="#000000" stroke-width="0.0592015" fill="#FFFFFF" fill-rule="evenodd" transform="matrix(1 0 0 1.00037 -5.75244 -4.71163)"/><path d="M22.1143 20.2359C22.1143 20.2359 22.587 20.5314 23.1189 20.1177 23.6507 19.704 25.069 18.5813 25.1873 18.1085 25.3054 17.6357 25.2464 17.1038 25.2464 17.1038 25.2464 17.1038 25.4827 17.7539 25.3645 18.2267 25.2464 18.6994 23.9462 20.2359 23.6507 20.2951 23.3553 20.3541 22.587 20.7678 22.1143 20.2359Z" fill="#000000" fill-rule="evenodd" fill-opacity="0.216216" transform="matrix(1 0 0 1.00037 -5.75244 -4.71163)"/><path d="M21.7596 21.4178C21.7596 21.4178 21.7006 21.9497 22.0552 22.3634 22.4097 22.7771 22.8234 23.2498 23.4734 23.3089 24.1235 23.368 24.419 23.4271 25.3054 22.8952 26.1919 22.3634 26.8419 21.7724 27.2556 21.1814 27.6693 20.5905 27.6693 20.5314 27.6693 20.5314" stroke="#FFFFFF" stroke-width="0.296007" stroke-linecap="round" stroke-linejoin="round" stroke-dasharray="0.296007 0.592014" fill="none" fill-rule="evenodd" transform="matrix(1 0 0 1.00037 -5.75244 -4.71163)"/><path d="M18.8049 23.0134C18.8049 23.0134 21.2869 23.3089 21.996 23.7226 22.7052 24.1362 22.7052 24.0181 22.7643 24.1362 22.8234 24.2544 22.6461 24.7863 22.6461 24.7863 22.6461 24.7863 23.237 24.2544 23.0006 23.959 22.7643 23.6635 19.2776 22.718 18.8049 23.0134Z" fill="#000000" fill-rule="evenodd" fill-opacity="0.264865" transform="matrix(1 0 0 1.00037 -5.75244 -4.71163)"/><path d="M30.1513 22.7771C30.1513 22.7771 25.66 23.368 25.01 23.7226 24.3599 24.0771 24.1235 24.1362 24.1235 24.1362 24.1235 24.1362 25.8963 23.0725 26.4283 23.0134 26.9601 22.9544 30.1513 22.7771 30.1513 22.7771Z" fill="#000000" fill-rule="evenodd" fill-opacity="0.264865" transform="matrix(1 0 0 1.00037 -5.75244 -4.71163)"/><path d="M30.9786 29.9868C30.9786 29.9868 31.215 29.3367 31.0378 28.6275 30.8605 27.9184 31.4514 29.2776 31.3332 29.8095 31.215 30.3413 31.215 31.4051 31.215 31.5823 31.215 31.7596 30.9786 29.9868 30.9786 29.9868Z" fill="#000000" fill-rule="evenodd" fill-opacity="0.264865" transform="matrix(1 0 0 1.00037 -5.75244 -4.71163)"/><path d="M18.3912 9.36227C18.3912 9.36227 18.0366 8.8895 18.5094 8.29855 18.9822 7.70758 18.8639 7.35301 19.5731 7.23482 20.2822 7.11663 21.7006 7.23482 22.528 7.70758 23.3553 8.18035 25.4827 9.36227 25.6009 9.83504 25.7191 10.3078 25.8373 10.5442 25.8373 10.5442 25.8373 10.5442 24.5372 9.24408 23.828 9.0077 23.1189 8.77131 21.937 8.18035 21.1097 8.29855 20.2822 8.41674 19.9277 8.65312 19.2186 9.0077 18.5094 9.36227 18.3912 9.36227 18.3912 9.36227Z" stroke="#000000" stroke-width="0.197339" fill="#FFFFFF" fill-rule="evenodd" transform="matrix(1 0 0 1.00037 -5.75244 -4.71163)"/><path d="M16.1133 41.1667C16.1133 41.1667 15.8554 39.7053 15.0819 39.3616 14.3082 39.0177 12.761 37.8143 12.761 38.33 12.761 38.8458 12.2452 38.416 12.5891 37.3845 12.9329 36.353 13.7924 34.2041 13.7924 34.2041 13.7924 34.2041 13.7924 34.8917 13.8784 35.3215 13.9644 35.7513 15.5116 36.0952 15.8554 36.9547 16.1993 37.8143 16.3712 37.9862 16.4572 38.9317 16.5431 39.8772 16.1133 40.9948 16.1133 41.1667Z" stroke="#000000" stroke-width="0.197339" fill="#FFFFFF" fill-rule="evenodd" transform="matrix(1 0 0 1.00037 -5.75244 -4.71163)"/><path d="M30.2964 39.4475C30.2964 39.4475 31.8436 38.0721 33.4768 37.2986 35.11 36.5249 35.9695 36.5249 36.3134 36.267 36.6572 36.0092 37.087 36.0952 37.0011 37.0407 36.9151 37.9862 37.4308 38.244 36.8292 39.3616 36.2274 40.479 36.0555 41.0807 35.3679 41.4245 34.6802 41.7683 34.1644 41.5104 34.1644 41.5104 34.1644 41.5104 34.8521 41.5104 35.11 40.9948 35.3679 40.479 35.6257 39.6194 34.6802 39.2756 33.7347 38.9317 32.3593 38.7598 31.8436 38.9317 31.3278 39.1037 30.2964 39.4475 30.2964 39.4475Z" stroke="#000000" stroke-width="0.197339" fill="#FFFFFF" fill-rule="evenodd" transform="matrix(1 0 0 1.00037 -5.75244 -4.71163)"/><path d="M21.2175 44.0144C21.2191 45.2846 19.7849 46.3153 18.0142 46.3164 16.2436 46.3174 14.8071 45.2886 14.8055 44.0183 14.8055 44.0171 14.8055 44.0157 14.8055 44.0144 14.8041 42.7442 16.2382 41.7136 18.0088 41.7125 19.7794 41.7114 21.216 42.7403 21.2175 44.0104 21.2175 44.0118 21.2175 44.0131 21.2175 44.0144Z" stroke="#000000" stroke-width="0.165313" stroke-linecap="round" stroke-linejoin="round" stroke-dasharray="0.165313 0.330626" fill="#389C25" fill-rule="evenodd" transform="matrix(1 0 0 1.00037 -5.75244 -4.71163)"/><path d="M19.1708 42.5999C19.0178 42.7808 19.3028 43.0162 19.1081 43.1624 18.9135 43.3085 18.6982 43.0207 18.4718 43.1248 18.2452 43.2289 18.3868 43.5506 18.1399 43.6075 17.8929 43.6643 17.8399 43.3222 17.5848 43.3289 17.3297 43.3356 17.2998 43.6798 17.0495 43.6362 16.7991 43.5924 16.9189 43.2638 16.6858 43.1718 16.4527 43.0798 16.2572 43.3785 16.053 43.2428 15.8488 43.1072 16.1177 42.8571 15.9528 42.6846 15.7879 42.5121 15.4653 42.706 15.3478 42.5053 15.2304 42.3047 15.5949 42.1828 15.5308 41.964 15.4667 41.7451 15.0812 41.7958 15.0736 41.5698 15.066 41.3439 15.4542 41.3742 15.5036 41.1524 15.553 40.9306 15.1809 40.8281 15.2846 40.6215 15.3885 40.415 15.7234 40.5916 15.8765 40.4107 16.0296 40.2298 15.7445 39.9944 15.9392 39.8483 16.1338 39.7022 16.3491 39.99 16.5756 39.8859 16.8021 39.7818 16.6606 39.4601 16.9075 39.4033 17.1545 39.3464 17.2075 39.6885 17.4626 39.6818 17.7175 39.6751 17.7476 39.3308 17.9979 39.3746 18.2482 39.4183 18.1285 39.7469 18.3616 39.8389 18.5946 39.9309 18.7902 39.6323 18.9943 39.7678 19.1985 39.9035 18.9297 40.1536 19.0946 40.326 19.2595 40.4985 19.5821 40.3046 19.6995 40.5053 19.817 40.706 19.4524 40.828 19.5165 41.0468 19.5806 41.2656 19.9662 41.2149 19.9738 41.4408 19.9814 41.6668 19.5931 41.6365 19.5438 41.8583 19.4944 42.0801 19.8665 42.1827 19.7627 42.3891 19.6588 42.5957 19.3239 42.4191 19.1708 42.5999Z" stroke="#000000" stroke-width="0.0972428" stroke-linecap="round" stroke-linejoin="round" fill="#FFFFFF" fill-rule="evenodd" transform="matrix(1 0 0 1.00037 -5.75244 -4.71163)"/><path d="M20.983 43.9939C20.8298 44.1747 21.1149 44.4102 20.9202 44.5563 20.7256 44.7024 20.5103 44.4146 20.2838 44.5187 20.0573 44.6228 20.1989 44.9446 19.9519 45.0014 19.705 45.0581 19.6519 44.716 19.3969 44.7227 19.1419 44.7296 19.1119 45.0738 18.8615 45.03 18.6112 44.9863 18.731 44.6577 18.4979 44.5657 18.2648 44.4737 18.0692 44.7723 17.8651 44.6367 17.6609 44.501 17.9297 44.251 17.7648 44.0786 17.5999 43.9061 17.2774 44.0999 17.16 43.8993 17.0425 43.6986 17.407 43.5766 17.343 43.3578 17.2788 43.1391 16.8933 43.1897 16.8857 42.9637 16.8781 42.7378 17.2663 42.7681 17.3157 42.5464 17.365 42.3245 16.9929 42.222 17.0967 42.0155 17.2006 41.809 17.5355 41.9856 17.6886 41.8047 17.8417 41.6238 17.5566 41.3884 17.7513 41.2422 17.946 41.0961 18.1613 41.3839 18.3877 41.2799 18.6142 41.1757 18.4726 40.854 18.7196 40.7972 18.9665 40.7404 19.0196 41.0825 19.2746 41.0758 19.5297 41.069 19.5597 40.7247 19.81 40.7685 20.0603 40.8122 19.9406 41.1408 20.1736 41.2328 20.4067 41.3248 20.6024 41.0262 20.8065 41.1618 21.0106 41.2975 20.7418 41.5475 20.9067 41.72 21.0716 41.8925 21.3941 41.6986 21.5116 41.8993 21.6291 42.0999 21.2645 42.2219 21.3287 42.4407 21.3927 42.6595 21.7782 42.6088 21.7858 42.8348 21.7934 43.0608 21.4052 43.0304 21.3558 43.2522 21.3065 43.4741 21.6786 43.5765 21.5748 43.7831 21.4709 43.9895 21.136 43.813 20.983 43.9939Z" stroke="#000000" stroke-width="0.0972428" stroke-linecap="round" stroke-linejoin="round" fill="#FFFFFF" fill-rule="evenodd" transform="matrix(1 0 0 1.00037 -5.75244 -4.71163)"/><path d="M16.7211 33.6999C16.7211 33.6999 19.7202 34.2451 22.9917 33.9725 26.2633 33.6999 24.0823 34.3361 24.0823 34.3361 24.0823 34.3361 18.5387 33.9725 17.8117 34.2451 17.0846 34.5178 17.0846 38.6982 17.0846 38.6982L16.7211 33.6999Z" fill="#000000" fill-rule="evenodd" fill-opacity="0.059459" transform="matrix(1 0 0 1.00037 -5.75244 -4.71163)"/><path d="M29.6259 34.9722C29.6259 34.9722 28.4445 38.5164 28.3536 38.7891 28.2627 39.0617 28.6262 39.4253 28.6262 39.4253L29.8986 39.8796 28.808 40.2432C28.808 40.2432 27.6266 40.7884 27.8992 39.2435 28.1718 37.6985 29.6259 34.9722 29.6259 34.9722Z" fill="#000000" fill-rule="evenodd" fill-opacity="0.108108" transform="matrix(1 0 0 1.00037 -5.75244 -4.71163)"/><path d="M17.9025 92.9528C17.9025 92.9528 19.5383 85.5006 19.7202 76.4128 19.9019 67.325 18.2661 59.1459 18.8113 55.6925 19.3566 52.2391 20.0837 48.4223 20.0837 48.4223 20.0837 48.4223 19.1748 55.8743 19.1748 57.1466 19.1748 58.4188 20.6289 69.8695 20.6289 73.8683 20.6289 77.8669 18.9931 89.6811 19.5383 91.4987 20.0837 93.3162 24.4458 96.2244 21.7195 95.1338 18.9931 94.0433 18.4478 93.1345 17.9025 92.9528Z" fill="#000000" fill-rule="evenodd" fill-opacity="0.027027" transform="matrix(1 0 0 1.00037 -5.75244 -4.71163)"/><path d="M25.1729 49.1492C25.1729 49.1492 27.1722 59.5094 27.5357 62.781 27.8992 66.0527 28.9897 78.5939 29.8986 80.4114 30.8073 82.2291 34.0789 90.0446 35.3513 92.5893 36.6236 95.1338 36.0783 95.6791 38.2593 95.1338 40.4405 94.5886 46.4384 94.9521 42.6215 94.4068 38.8046 93.8615 37.5323 94.5886 36.26 92.0439 34.9878 89.4994 31.1708 82.5926 30.0803 78.0486 28.9897 73.5047 27.5357 57.8736 26.9904 56.2378 26.4452 54.6019 25.1729 49.1492 25.1729 49.1492Z" fill="#000000" fill-rule="evenodd" fill-opacity="0.027027" transform="matrix(1 0 0 1.00037 -5.75244 -4.71163)"/><path d="M37.8708 66.3936C37.8708 66.3936 39.3181 68.8057 40.4035 69.7707 41.489 70.7355 48.1225 76.1628 48.8461 76.6452 49.5697 77.1277 52.1025 78.5749 53.3086 79.0574 54.5146 79.5399 58.7359 80.6253 59.7008 81.1077 60.6656 81.5901 61.9923 81.952 62.5954 82.7962 63.1984 83.6405 63.6808 85.329 63.8014 86.0526 63.9221 86.7763 63.9221 87.3793 63.1984 88.103 62.4747 88.8266 60.6656 90.0327 59.942 90.3945 59.2183 90.7563 54.5146 92.083 51.9819 92.8067 49.4491 93.5303 41.8509 95.3394 41.8509 95.3394 41.8509 95.3394 47.5195 92.8067 47.8812 91.7212 48.243 90.6358 52.4643 87.7411 50.1727 84.7259 47.8812 81.7108 43.2981 78.0925 40.7654 74.2331 38.2327 70.3737 37.8708 66.3936 37.8708 66.3936Z" fill="#000000" fill-rule="evenodd" fill-opacity="0.015686" transform="matrix(1 0 0 1.00037 -5.75244 -4.71163)"/></g></svg>