<svg xmlns="http://www.w3.org/2000/svg" class="QR" width="25" height="25" viewBox="0 0 25 25">
  <defs>
    <circle cx="0.5" cy="0.5" r="0.5" id="dot" />
  </defs>
  <rect x="0" y="0" width="25" height="25" class="background" fill="#FFFFFF" />
  <g class="foreground" fill="#000000">
    <rect x="2" y="2" width="3" height="3" />
    <rect x="0" y="0" width="7" height="1" />
    <rect x="0" y="6" width="7" height="1" />
    <rect x="0" y="1" width="1" height="5" />
    <rect x="6" y="1" width="1" height="5" />
    <rect x="20" y="2" width="3" height="3" />
    <rect x="18" y="0" width="7" height="1" />
    <rect x="18" y="6" width="7" height="1" />
    <rect x="18" y="1" width="1" height="5" />
    <rect x="24" y="1" width="1" height="5" />
    <rect x="2" y="20" width="3" height="3" />
    <rect x="0" y="18" width="7" height="1" />
    <rect x="0" y="24" width="7" height="1" />
    <rect x="0" y="19" width="1" height="5" />
    <rect x="6" y="19" width="1" height="5" />
    <use x="8" y="6" href="#dot" />
    <use x="6" y="8" href="#dot" />
    <use x="10" y="6" href="#dot" />
    <use x="6" y="10" href="#dot" />
    <use x="12" y="6" href="#dot" />
    <use x="6" y="12" href="#dot" />
    <use x="14" y="6" href="#dot" />
    <use x="6" y="14" href="#dot" />
    <use x="16" y="6" href="#dot" />
    <use x="6" y="16" href="#dot" />
    <use x="8" y="17" href="#dot" />
    <use x="20" y="20" href="#dot" />
    <use x="19" y="20" href="#dot" />
    <use x="18" y="20" href="#dot" />
    <use x="17" y="20" href="#dot" />
    <use x="16" y="20" href="#dot" />
    <use x="20" y="19" href="#dot" />
    <use x="18" y="18" href="#dot" />
    <use x="2" y="8" href="#dot" />
    <use x="1" y="8" href="#dot" />
    <use x="16" y="19" href="#dot" />
    <use x="20" y="18" href="#dot" />
    <use x="8" y="22" href="#dot" />
    <use x="8" y="23" href="#dot" />
    <use x="8" y="24" href="#dot" />
    <use x="16" y="18" href="#dot" />
    <use x="20" y="17" href="#dot" />
    <use x="22" y="8" href="#dot" />
    <use x="18" y="8" href="#dot" />
    <use x="4" y="8" href="#dot" />
    <use x="16" y="17" href="#dot" />
    <use x="20" y="16" href="#dot" />
    <use x="19" y="16" href="#dot" />
    <use x="18" y="16" href="#dot" />
    <use x="17" y="16" href="#dot" />
    <use x="16" y="16" href="#dot" />
    <use x="0" y="8" href="#dot" />
    <use x="8" y="20" href="#dot" />
    <use x="8" y="7" href="#dot" />
    <use x="8" y="2" href="#dot" />
    <use x="24" y="24" href="#dot" />
    <use x="23" y="24" href="#dot" />
    <use x="23" y="23" href="#dot" />
    <use x="24" y="22" href="#dot" />
    <use x="24" y="20" href="#dot" />
    <use x="23" y="20" href="#dot" />
    <use x="24" y="19" href="#dot" />
    <use x="24" y="18" href="#dot" />
    <use x="23" y="18" href="#dot" />
    <use x="24" y="17" href="#dot" />
    <use x="23" y="17" href="#dot" />
    <use x="23" y="15" href="#dot" />
    <use x="24" y="14" href="#dot" />
    <use x="23" y="14" href="#dot" />
    <use x="24" y="13" href="#dot" />
    <use x="24" y="12" href="#dot" />
    <use x="23" y="12" href="#dot" />
    <use x="23" y="11" href="#dot" />
    <use x="24" y="10" href="#dot" />
    <use x="23" y="10" href="#dot" />
    <use x="24" y="9" href="#dot" />
    <use x="22" y="10" href="#dot" />
    <use x="21" y="12" href="#dot" />
    <use x="21" y="13" href="#dot" />
    <use x="22" y="14" href="#dot" />
    <use x="21" y="16" href="#dot" />
    <use x="21" y="17" href="#dot" />
    <use x="21" y="18" href="#dot" />
    <use x="21" y="19" href="#dot" />
    <use x="21" y="20" href="#dot" />
    <use x="22" y="21" href="#dot" />
    <use x="21" y="21" href="#dot" />
    <use x="21" y="23" href="#dot" />
    <use x="19" y="24" href="#dot" />
    <use x="20" y="23" href="#dot" />
    <use x="20" y="22" href="#dot" />
    <use x="20" y="21" href="#dot" />
    <use x="19" y="21" href="#dot" />
    <use x="20" y="15" href="#dot" />
    <use x="19" y="14" href="#dot" />
    <use x="19" y="11" href="#dot" />
    <use x="20" y="10" href="#dot" />
    <use x="19" y="10" href="#dot" />
    <use x="18" y="9" href="#dot" />
    <use x="17" y="9" href="#dot" />
    <use x="18" y="11" href="#dot" />
    <use x="18" y="12" href="#dot" />
    <use x="17" y="12" href="#dot" />
    <use x="18" y="13" href="#dot" />
    <use x="17" y="13" href="#dot" />
    <use x="18" y="14" href="#dot" />
    <use x="17" y="21" href="#dot" />
    <use x="18" y="23" href="#dot" />
    <use x="16" y="24" href="#dot" />
    <use x="15" y="24" href="#dot" />
    <use x="16" y="23" href="#dot" />
    <use x="15" y="23" href="#dot" />
    <use x="15" y="22" href="#dot" />
    <use x="15" y="18" href="#dot" />
    <use x="16" y="12" href="#dot" />
    <use x="15" y="12" href="#dot" />
    <use x="16" y="11" href="#dot" />
    <use x="16" y="9" href="#dot" />
    <use x="16" y="8" href="#dot" />
    <use x="16" y="7" href="#dot" />
    <use x="16" y="5" href="#dot" />
    <use x="15" y="5" href="#dot" />
    <use x="15" y="4" href="#dot" />
    <use x="16" y="2" href="#dot" />
    <use x="16" y="1" href="#dot" />
    <use x="15" y="1" href="#dot" />
    <use x="15" y="0" href="#dot" />
    <use x="14" y="1" href="#dot" />
    <use x="14" y="2" href="#dot" />
    <use x="14" y="3" href="#dot" />
    <use x="14" y="4" href="#dot" />
    <use x="13" y="4" href="#dot" />
    <use x="13" y="5" href="#dot" />
    <use x="14" y="7" href="#dot" />
    <use x="13" y="7" href="#dot" />
    <use x="13" y="8" href="#dot" />
    <use x="13" y="10" href="#dot" />
    <use x="13" y="11" href="#dot" />
    <use x="13" y="12" href="#dot" />
    <use x="13" y="13" href="#dot" />
    <use x="13" y="14" href="#dot" />
    <use x="14" y="15" href="#dot" />
    <use x="13" y="15" href="#dot" />
    <use x="13" y="16" href="#dot" />
    <use x="14" y="17" href="#dot" />
    <use x="13" y="17" href="#dot" />
    <use x="14" y="18" href="#dot" />
    <use x="13" y="19" href="#dot" />
    <use x="13" y="20" href="#dot" />
    <use x="14" y="21" href="#dot" />
    <use x="13" y="21" href="#dot" />
    <use x="14" y="22" href="#dot" />
    <use x="13" y="22" href="#dot" />
    <use x="14" y="23" href="#dot" />
    <use x="13" y="23" href="#dot" />
    <use x="14" y="24" href="#dot" />
    <use x="12" y="24" href="#dot" />
    <use x="11" y="24" href="#dot" />
    <use x="12" y="23" href="#dot" />
    <use x="12" y="22" href="#dot" />
    <use x="11" y="22" href="#dot" />
    <use x="12" y="21" href="#dot" />
    <use x="11" y="21" href="#dot" />
    <use x="12" y="20" href="#dot" />
    <use x="11" y="19" href="#dot" />
    <use x="11" y="17" href="#dot" />
    <use x="11" y="16" href="#dot" />
    <use x="12" y="15" href="#dot" />
    <use x="12" y="14" href="#dot" />
    <use x="11" y="14" href="#dot" />
    <use x="12" y="13" href="#dot" />
    <use x="11" y="13" href="#dot" />
    <use x="12" y="12" href="#dot" />
    <use x="11" y="11" href="#dot" />
    <use x="11" y="9" href="#dot" />
    <use x="11" y="8" href="#dot" />
    <use x="12" y="7" href="#dot" />
    <use x="11" y="3" href="#dot" />
    <use x="12" y="2" href="#dot" />
    <use x="12" y="1" href="#dot" />
    <use x="11" y="1" href="#dot" />
    <use x="12" y="0" href="#dot" />
    <use x="9" y="0" href="#dot" />
    <use x="10" y="1" href="#dot" />
    <use x="10" y="2" href="#dot" />
    <use x="9" y="2" href="#dot" />
    <use x="10" y="3" href="#dot" />
    <use x="9" y="3" href="#dot" />
    <use x="10" y="4" href="#dot" />
    <use x="9" y="5" href="#dot" />
    <use x="10" y="7" href="#dot" />
    <use x="9" y="7" href="#dot" />
    <use x="10" y="8" href="#dot" />
    <use x="10" y="9" href="#dot" />
    <use x="9" y="10" href="#dot" />
    <use x="9" y="13" href="#dot" />
    <use x="9" y="14" href="#dot" />
    <use x="10" y="15" href="#dot" />
    <use x="9" y="15" href="#dot" />
    <use x="10" y="17" href="#dot" />
    <use x="9" y="18" href="#dot" />
    <use x="9" y="19" href="#dot" />
    <use x="10" y="20" href="#dot" />
    <use x="10" y="22" href="#dot" />
    <use x="10" y="23" href="#dot" />
    <use x="9" y="23" href="#dot" />
    <use x="9" y="24" href="#dot" />
    <use x="8" y="15" href="#dot" />
    <use x="7" y="15" href="#dot" />
    <use x="8" y="12" href="#dot" />
    <use x="7" y="10" href="#dot" />
    <use x="8" y="9" href="#dot" />
    <use x="5" y="9" href="#dot" />
    <use x="4" y="10" href="#dot" />
    <use x="5" y="11" href="#dot" />
    <use x="4" y="11" href="#dot" />
    <use x="4" y="13" href="#dot" />
    <use x="4" y="14" href="#dot" />
    <use x="4" y="15" href="#dot" />
    <use x="3" y="16" href="#dot" />
    <use x="2" y="16" href="#dot" />
    <use x="2" y="14" href="#dot" />
    <use x="3" y="13" href="#dot" />
    <use x="2" y="13" href="#dot" />
    <use x="3" y="12" href="#dot" />
    <use x="2" y="12" href="#dot" />
    <use x="2" y="11" href="#dot" />
    <use x="2" y="10" href="#dot" />
    <use x="3" y="9" href="#dot" />
    <use x="1" y="9" href="#dot" />
    <use x="0" y="9" href="#dot" />
    <use x="1" y="10" href="#dot" />
    <use x="1" y="11" href="#dot" />
    <use x="0" y="14" href="#dot" />
    <use x="1" y="15" href="#dot" />
    <use x="0" y="16" href="#dot" />
  </g>
</svg>