<svg xmlns="http://www.w3.org/2000/svg" class="QR" width="29" height="29" viewBox="0 0 29 29">
  <defs>
    <circle cx="0.5" cy="0.5" r="0.5" id="dot" />
  </defs>
  <rect x="0" y="0" width="29" height="29" class="background" fill="#FFFFFF" />
  <g class="foreground" fill="#000000">
    <rect x="2" y="2" width="3" height="3" />
    <rect x="0" y="0" width="7" height="1" />
    <rect x="0" y="6" width="7" height="1" />
    <rect x="0" y="1" width="1" height="5" />
    <rect x="6" y="1" width="1" height="5" />
    <rect x="24" y="2" width="3" height="3" />
    <rect x="22" y="0" width="7" height="1" />
    <rect x="22" y="6" width="7" height="1" />
    <rect x="22" y="1" width="1" height="5" />
    <rect x="28" y="1" width="1" height="5" />
    <rect x="2" y="24" width="3" height="3" />
    <rect x="0" y="22" width="7" height="1" />
    <rect x="0" y="28" width="7" height="1" />
    <rect x="0" y="23" width="1" height="5" />
    <rect x="6" y="23" width="1" height="5" />
    <use x="8" y="6" href="#dot" />
    <use x="6" y="8" href="#dot" />
    <use x="10" y="6" href="#dot" />
    <use x="6" y="10" href="#dot" />
    <use x="12" y="6" href="#dot" />
    <use x="6" y="12" href="#dot" />
    <use x="14" y="6" href="#dot" />
    <use x="6" y="14" href="#dot" />
    <use x="16" y="6" href="#dot" />
    <use x="6" y="16" href="#dot" />
    <use x="18" y="6" href="#dot" />
    <use x="6" y="18" href="#dot" />
    <use x="20" y="6" href="#dot" />
    <use x="6" y="20" href="#dot" />
    <use x="8" y="21" href="#dot" />
    <use x="24" y="24" href="#dot" />
    <use x="23" y="24" href="#dot" />
    <use x="22" y="24" href="#dot" />
    <use x="21" y="24" href="#dot" />
    <use x="20" y="24" href="#dot" />
    <use x="24" y="23" href="#dot" />
    <use x="22" y="22" href="#dot" />
    <use x="2" y="8" href="#dot" />
    <use x="1" y="8" href="#dot" />
    <use x="20" y="23" href="#dot" />
    <use x="24" y="22" href="#dot" />
    <use x="8" y="26" href="#dot" />
    <use x="8" y="27" href="#dot" />
    <use x="8" y="28" href="#dot" />
    <use x="20" y="22" href="#dot" />
    <use x="24" y="21" href="#dot" />
    <use x="26" y="8" href="#dot" />
    <use x="22" y="8" href="#dot" />
    <use x="4" y="8" href="#dot" />
    <use x="20" y="21" href="#dot" />
    <use x="24" y="20" href="#dot" />
    <use x="23" y="20" href="#dot" />
    <use x="22" y="20" href="#dot" />
    <use x="21" y="20" href="#dot" />
    <use x="20" y="20" href="#dot" />
    <use x="0" y="8" href="#dot" />
    <use x="8" y="24" href="#dot" />
    <use x="8" y="7" href="#dot" />
    <use x="8" y="2" href="#dot" />
    <use x="28" y="28" href="#dot" />
    <use x="27" y="28" href="#dot" />
    <use x="27" y="27" href="#dot" />
    <use x="28" y="26" href="#dot" />
    <use x="28" y="25" href="#dot" />
    <use x="27" y="25" href="#dot" />
    <use x="27" y="23" href="#dot" />
    <use x="28" y="22" href="#dot" />
    <use x="27" y="22" href="#dot" />
    <use x="28" y="21" href="#dot" />
    <use x="27" y="21" href="#dot" />
    <use x="27" y="19" href="#dot" />
    <use x="28" y="18" href="#dot" />
    <use x="27" y="18" href="#dot" />
    <use x="28" y="17" href="#dot" />
    <use x="28" y="16" href="#dot" />
    <use x="27" y="16" href="#dot" />
    <use x="27" y="15" href="#dot" />
    <use x="28" y="14" href="#dot" />
    <use x="27" y="14" href="#dot" />
    <use x="28" y="13" href="#dot" />
    <use x="28" y="12" href="#dot" />
    <use x="27" y="12" href="#dot" />
    <use x="27" y="11" href="#dot" />
    <use x="28" y="10" href="#dot" />
    <use x="27" y="10" href="#dot" />
    <use x="28" y="9" href="#dot" />
    <use x="25" y="9" href="#dot" />
    <use x="26" y="10" href="#dot" />
    <use x="25" y="12" href="#dot" />
    <use x="25" y="13" href="#dot" />
    <use x="25" y="14" href="#dot" />
    <use x="25" y="15" href="#dot" />
    <use x="25" y="16" href="#dot" />
    <use x="26" y="17" href="#dot" />
    <use x="25" y="17" href="#dot" />
    <use x="25" y="19" href="#dot" />
    <use x="26" y="21" href="#dot" />
    <use x="25" y="22" href="#dot" />
    <use x="25" y="23" href="#dot" />
    <use x="26" y="25" href="#dot" />
    <use x="25" y="26" href="#dot" />
    <use x="25" y="28" href="#dot" />
    <use x="24" y="28" href="#dot" />
    <use x="23" y="28" href="#dot" />
    <use x="24" y="27" href="#dot" />
    <use x="24" y="26" href="#dot" />
    <use x="23" y="26" href="#dot" />
    <use x="24" y="25" href="#dot" />
    <use x="23" y="18" href="#dot" />
    <use x="23" y="16" href="#dot" />
    <use x="23" y="14" href="#dot" />
    <use x="23" y="13" href="#dot" />
    <use x="24" y="11" href="#dot" />
    <use x="22" y="9" href="#dot" />
    <use x="22" y="10" href="#dot" />
    <use x="21" y="11" href="#dot" />
    <use x="22" y="12" href="#dot" />
    <use x="21" y="12" href="#dot" />
    <use x="22" y="13" href="#dot" />
    <use x="22" y="14" href="#dot" />
    <use x="21" y="14" href="#dot" />
    <use x="22" y="16" href="#dot" />
    <use x="21" y="16" href="#dot" />
    <use x="22" y="17" href="#dot" />
    <use x="22" y="19" href="#dot" />
    <use x="21" y="19" href="#dot" />
    <use x="21" y="26" href="#dot" />
    <use x="22" y="27" href="#dot" />
    <use x="21" y="27" href="#dot" />
    <use x="20" y="28" href="#dot" />
    <use x="19" y="28" href="#dot" />
    <use x="20" y="27" href="#dot" />
    <use x="19" y="22" href="#dot" />
    <use x="19" y="21" href="#dot" />
    <use x="19" y="20" href="#dot" />
    <use x="20" y="19" href="#dot" />
    <use x="19" y="19" href="#dot" />
    <use x="20" y="18" href="#dot" />
    <use x="20" y="17" href="#dot" />
    <use x="20" y="16" href="#dot" />
    <use x="20" y="15" href="#dot" />
    <use x="19" y="15" href="#dot" />
    <use x="20" y="12" href="#dot" />
    <use x="19" y="12" href="#dot" />
    <use x="20" y="11" href="#dot" />
    <use x="20" y="10" href="#dot" />
    <use x="20" y="9" href="#dot" />
    <use x="20" y="8" href="#dot" />
    <use x="19" y="8" href="#dot" />
    <use x="20" y="7" href="#dot" />
    <use x="19" y="5" href="#dot" />
    <use x="19" y="4" href="#dot" />
    <use x="19" y="3" href="#dot" />
    <use x="20" y="1" href="#dot" />
    <use x="19" y="1" href="#dot" />
    <use x="19" y="0" href="#dot" />
    <use x="18" y="1" href="#dot" />
    <use x="17" y="1" href="#dot" />
    <use x="18" y="2" href="#dot" />
    <use x="18" y="4" href="#dot" />
    <use x="17" y="4" href="#dot" />
    <use x="18" y="5" href="#dot" />
    <use x="18" y="7" href="#dot" />
    <use x="17" y="7" href="#dot" />
    <use x="17" y="8" href="#dot" />
    <use x="17" y="9" href="#dot" />
    <use x="17" y="10" href="#dot" />
    <use x="18" y="11" href="#dot" />
    <use x="17" y="11" href="#dot" />
    <use x="17" y="12" href="#dot" />
    <use x="18" y="13" href="#dot" />
    <use x="17" y="13" href="#dot" />
    <use x="18" y="14" href="#dot" />
    <use x="17" y="14" href="#dot" />
    <use x="18" y="15" href="#dot" />
    <use x="17" y="15" href="#dot" />
    <use x="18" y="16" href="#dot" />
    <use x="17" y="16" href="#dot" />
    <use x="18" y="17" href="#dot" />
    <use x="17" y="17" href="#dot" />
    <use x="18" y="18" href="#dot" />
    <use x="17" y="18" href="#dot" />
    <use x="17" y="19" href="#dot" />
    <use x="18" y="20" href="#dot" />
    <use x="17" y="20" href="#dot" />
    <use x="18" y="21" href="#dot" />
    <use x="17" y="21" href="#dot" />
    <use x="18" y="23" href="#dot" />
    <use x="17" y="23" href="#dot" />
    <use x="18" y="24" href="#dot" />
    <use x="17" y="24" href="#dot" />
    <use x="17" y="26" href="#dot" />
    <use x="18" y="27" href="#dot" />
    <use x="17" y="27" href="#dot" />
    <use x="16" y="28" href="#dot" />
    <use x="15" y="28" href="#dot" />
    <use x="16" y="27" href="#dot" />
    <use x="15" y="27" href="#dot" />
    <use x="16" y="25" href="#dot" />
    <use x="16" y="24" href="#dot" />
    <use x="15" y="23" href="#dot" />
    <use x="16" y="21" href="#dot" />
    <use x="15" y="19" href="#dot" />
    <use x="16" y="18" href="#dot" />
    <use x="16" y="14" href="#dot" />
    <use x="16" y="11" href="#dot" />
    <use x="15" y="11" href="#dot" />
    <use x="16" y="8" href="#dot" />
    <use x="15" y="8" href="#dot" />
    <use x="16" y="7" href="#dot" />
    <use x="15" y="5" href="#dot" />
    <use x="15" y="4" href="#dot" />
    <use x="16" y="3" href="#dot" />
    <use x="16" y="2" href="#dot" />
    <use x="15" y="1" href="#dot" />
    <use x="15" y="0" href="#dot" />
    <use x="14" y="0" href="#dot" />
    <use x="13" y="0" href="#dot" />
    <use x="13" y="1" href="#dot" />
    <use x="14" y="2" href="#dot" />
    <use x="14" y="3" href="#dot" />
    <use x="14" y="5" href="#dot" />
    <use x="13" y="5" href="#dot" />
    <use x="13" y="7" href="#dot" />
    <use x="13" y="8" href="#dot" />
    <use x="14" y="11" href="#dot" />
    <use x="13" y="11" href="#dot" />
    <use x="13" y="12" href="#dot" />
    <use x="13" y="15" href="#dot" />
    <use x="14" y="16" href="#dot" />
    <use x="13" y="18" href="#dot" />
    <use x="13" y="21" href="#dot" />
    <use x="14" y="22" href="#dot" />
    <use x="14" y="23" href="#dot" />
    <use x="13" y="23" href="#dot" />
    <use x="14" y="24" href="#dot" />
    <use x="14" y="25" href="#dot" />
    <use x="13" y="26" href="#dot" />
    <use x="12" y="28" href="#dot" />
    <use x="11" y="27" href="#dot" />
    <use x="11" y="25" href="#dot" />
    <use x="11" y="24" href="#dot" />
    <use x="12" y="23" href="#dot" />
    <use x="12" y="22" href="#dot" />
    <use x="11" y="22" href="#dot" />
    <use x="12" y="21" href="#dot" />
    <use x="11" y="21" href="#dot" />
    <use x="12" y="20" href="#dot" />
    <use x="11" y="19" href="#dot" />
    <use x="11" y="17" href="#dot" />
    <use x="11" y="16" href="#dot" />
    <use x="12" y="15" href="#dot" />
    <use x="12" y="14" href="#dot" />
    <use x="11" y="14" href="#dot" />
    <use x="12" y="13" href="#dot" />
    <use x="11" y="13" href="#dot" />
    <use x="12" y="12" href="#dot" />
    <use x="11" y="11" href="#dot" />
    <use x="11" y="9" href="#dot" />
    <use x="11" y="8" href="#dot" />
    <use x="12" y="7" href="#dot" />
    <use x="11" y="3" href="#dot" />
    <use x="12" y="2" href="#dot" />
    <use x="12" y="1" href="#dot" />
    <use x="11" y="1" href="#dot" />
    <use x="12" y="0" href="#dot" />
    <use x="9" y="0" href="#dot" />
    <use x="10" y="1" href="#dot" />
    <use x="10" y="2" href="#dot" />
    <use x="9" y="2" href="#dot" />
    <use x="10" y="3" href="#dot" />
    <use x="9" y="3" href="#dot" />
    <use x="10" y="4" href="#dot" />
    <use x="9" y="5" href="#dot" />
    <use x="10" y="7" href="#dot" />
    <use x="9" y="7" href="#dot" />
    <use x="10" y="8" href="#dot" />
    <use x="10" y="9" href="#dot" />
    <use x="9" y="10" href="#dot" />
    <use x="9" y="13" href="#dot" />
    <use x="10" y="14" href="#dot" />
    <use x="9" y="14" href="#dot" />
    <use x="10" y="15" href="#dot" />
    <use x="9" y="17" href="#dot" />
    <use x="10" y="19" href="#dot" />
    <use x="9" y="19" href="#dot" />
    <use x="9" y="20" href="#dot" />
    <use x="9" y="22" href="#dot" />
    <use x="10" y="23" href="#dot" />
    <use x="10" y="24" href="#dot" />
    <use x="9" y="24" href="#dot" />
    <use x="9" y="25" href="#dot" />
    <use x="10" y="27" href="#dot" />
    <use x="9" y="27" href="#dot" />
    <use x="10" y="28" href="#dot" />
    <use x="7" y="18" href="#dot" />
    <use x="8" y="16" href="#dot" />
    <use x="8" y="14" href="#dot" />
    <use x="7" y="14" href="#dot" />
    <use x="8" y="13" href="#dot" />
    <use x="7" y="13" href="#dot" />
    <use x="8" y="12" href="#dot" />
    <use x="7" y="12" href="#dot" />
    <use x="8" y="11" href="#dot" />
    <use x="7" y="11" href="#dot" />
    <use x="7" y="10" href="#dot" />
    <use x="5" y="9" href="#dot" />
    <use x="4" y="9" href="#dot" />
    <use x="4" y="10" href="#dot" />
    <use x="5" y="12" href="#dot" />
    <use x="4" y="12" href="#dot" />
    <use x="5" y="13" href="#dot" />
    <use x="5" y="14" href="#dot" />
    <use x="5" y="15" href="#dot" />
    <use x="4" y="15" href="#dot" />
    <use x="5" y="16" href="#dot" />
    <use x="4" y="16" href="#dot" />
    <use x="4" y="17" href="#dot" />
    <use x="5" y="19" href="#dot" />
    <use x="5" y="20" href="#dot" />
    <use x="3" y="20" href="#dot" />
    <use x="3" y="19" href="#dot" />
    <use x="3" y="18" href="#dot" />
    <use x="2" y="18" href="#dot" />
    <use x="2" y="17" href="#dot" />
    <use x="3" y="15" href="#dot" />
    <use x="2" y="14" href="#dot" />
    <use x="2" y="13" href="#dot" />
    <use x="3" y="12" href="#dot" />
    <use x="2" y="11" href="#dot" />
    <use x="2" y="10" href="#dot" />
    <use x="0" y="10" href="#dot" />
    <use x="1" y="11" href="#dot" />
    <use x="0" y="12" href="#dot" />
    <use x="1" y="14" href="#dot" />
    <use x="0" y="15" href="#dot" />
    <use x="1" y="17" href="#dot" />
    <use x="0" y="18" href="#dot" />
    <use x="1" y="19" href="#dot" />
    <use x="0" y="20" href="#dot" />
  </g>
</svg>