<svg class="QR" width="29" height="29" viewBox="0 0 29 29"><rect x="0" y="0" width="29" height="29" class="background" fill="#FFFFFF" /><g class="foreground" fill="#000000"><rect x="2" y="2" width="3" height="3" /><rect x="0" y="0" width="7" height="1" /><rect x="0" y="6" width="7" height="1" /><rect x="0" y="1" width="1" height="5" /><rect x="6" y="1" width="1" height="5" /><rect x="24" y="2" width="3" height="3" /><rect x="22" y="0" width="7" height="1" /><rect x="22" y="6" width="7" height="1" /><rect x="22" y="1" width="1" height="5" /><rect x="28" y="1" width="1" height="5" /><rect x="2" y="24" width="3" height="3" /><rect x="0" y="22" width="7" height="1" /><rect x="0" y="28" width="7" height="1" /><rect x="0" y="23" width="1" height="5" /><rect x="6" y="23" width="1" height="5" /><rect x="8" y="6" width="1" height="1" /><rect x="6" y="8" width="1" height="1" /><rect x="10" y="6" width="1" height="1" /><rect x="6" y="10" width="1" height="1" /><rect x="12" y="6" width="1" height="1" /><rect x="6" y="12" width="1" height="1" /><rect x="14" y="6" width="1" height="1" /><rect x="6" y="14" width="1" height="1" /><rect x="16" y="6" width="1" height="1" /><rect x="6" y="16" width="1" height="1" /><rect x="18" y="6" width="1" height="1" /><rect x="6" y="18" width="1" height="1" /><rect x="20" y="6" width="1" height="1" /><rect x="6" y="20" width="1" height="1" /><rect x="8" y="21" width="1" height="1" /><rect x="24" y="24" width="1" height="1" /><rect x="23" y="24" width="1" height="1" /><rect x="22" y="24" width="1" height="1" /><rect x="21" y="24" width="1" height="1" /><rect x="20" y="24" width="1" height="1" /><rect x="24" y="23" width="1" height="1" /><rect x="22" y="22" width="1" height="1" /><rect x="3" y="8" width="1" height="1" /><rect x="2" y="8" width="1" height="1" /><rect x="20" y="23" width="1" height="1" /><rect x="24" y="22" width="1" height="1" /><rect x="8" y="26" width="1" height="1" /><rect x="8" y="28" width="1" height="1" /><rect x="28" y="8" width="1" height="1" /><rect x="20" y="22" width="1" height="1" /><rect x="24" y="21" width="1" height="1" /><rect x="27" y="8" width="1" height="1" /><rect x="25" y="8" width="1" height="1" /><rect x="22" y="8" width="1" height="1" /><rect x="20" y="21" width="1" height="1" /><rect x="24" y="20" width="1" height="1" /><rect x="23" y="20" width="1" height="1" /><rect x="22" y="20" width="1" height="1" /><rect x="21" y="20" width="1" height="1" /><rect x="20" y="20" width="1" height="1" /><rect x="0" y="8" width="1" height="1" /><rect x="8" y="25" width="1" height="1" /><rect x="8" y="7" width="1" height="1" /><rect x="8" y="3" width="1" height="1" /><rect x="8" y="1" width="1" height="1" /><rect x="8" y="0" width="1" height="1" /><rect x="27" y="28" width="1" height="1" /><rect x="27" y="27" width="1" height="1" /><rect x="28" y="26" width="1" height="1" /><rect x="27" y="25" width="1" height="1" /><rect x="28" y="24" width="1" height="1" /><rect x="28" y="23" width="1" height="1" /><rect x="27" y="22" width="1" height="1" /><rect x="28" y="21" width="1" height="1" /><rect x="27" y="21" width="1" height="1" /><rect x="27" y="17" width="1" height="1" /><rect x="27" y="16" width="1" height="1" /><rect x="27" y="15" width="1" height="1" /><rect x="28" y="14" width="1" height="1" /><rect x="27" y="14" width="1" height="1" /><rect x="28" y="13" width="1" height="1" /><rect x="27" y="13" width="1" height="1" /><rect x="28" y="11" width="1" height="1" /><rect x="27" y="10" width="1" height="1" /><rect x="28" y="9" width="1" height="1" /><rect x="26" y="10" width="1" height="1" /><rect x="26" y="12" width="1" height="1" /><rect x="25" y="12" width="1" height="1" /><rect x="26" y="13" width="1" height="1" /><rect x="26" y="14" width="1" height="1" /><rect x="25" y="16" width="1" height="1" /><rect x="26" y="17" width="1" height="1" /><rect x="25" y="17" width="1" height="1" /><rect x="26" y="18" width="1" height="1" /><rect x="26" y="19" width="1" height="1" /><rect x="26" y="20" width="1" height="1" /><rect x="25" y="20" width="1" height="1" /><rect x="26" y="21" width="1" height="1" /><rect x="25" y="21" width="1" height="1" /><rect x="25" y="22" width="1" height="1" /><rect x="25" y="23" width="1" height="1" /><rect x="26" y="24" width="1" height="1" /><rect x="25" y="25" width="1" height="1" /><rect x="26" y="26" width="1" height="1" /><rect x="25" y="27" width="1" height="1" /><rect x="25" y="28" width="1" height="1" /><rect x="23" y="28" width="1" height="1" /><rect x="24" y="27" width="1" height="1" /><rect x="23" y="26" width="1" height="1" /><rect x="24" y="25" width="1" height="1" /><rect x="24" y="18" width="1" height="1" /><rect x="23" y="18" width="1" height="1" /><rect x="23" y="17" width="1" height="1" /><rect x="24" y="16" width="1" height="1" /><rect x="24" y="14" width="1" height="1" /><rect x="23" y="12" width="1" height="1" /><rect x="24" y="11" width="1" height="1" /><rect x="24" y="10" width="1" height="1" /><rect x="23" y="10" width="1" height="1" /><rect x="24" y="9" width="1" height="1" /><rect x="23" y="9" width="1" height="1" /><rect x="22" y="9" width="1" height="1" /><rect x="22" y="10" width="1" height="1" /><rect x="22" y="11" width="1" height="1" /><rect x="21" y="11" width="1" height="1" /><rect x="22" y="13" width="1" height="1" /><rect x="21" y="14" width="1" height="1" /><rect x="21" y="15" width="1" height="1" /><rect x="22" y="18" width="1" height="1" /><rect x="22" y="19" width="1" height="1" /><rect x="21" y="25" width="1" height="1" /><rect x="22" y="27" width="1" height="1" /><rect x="22" y="28" width="1" height="1" /><rect x="20" y="28" width="1" height="1" /><rect x="19" y="28" width="1" height="1" /><rect x="20" y="27" width="1" height="1" /><rect x="20" y="25" width="1" height="1" /><rect x="19" y="25" width="1" height="1" /><rect x="19" y="22" width="1" height="1" /><rect x="19" y="21" width="1" height="1" /><rect x="19" y="20" width="1" height="1" /><rect x="20" y="16" width="1" height="1" /><rect x="19" y="16" width="1" height="1" /><rect x="20" y="15" width="1" height="1" /><rect x="19" y="15" width="1" height="1" /><rect x="20" y="14" width="1" height="1" /><rect x="19" y="14" width="1" height="1" /><rect x="19" y="13" width="1" height="1" /><rect x="19" y="12" width="1" height="1" /><rect x="19" y="11" width="1" height="1" /><rect x="20" y="9" width="1" height="1" /><rect x="19" y="9" width="1" height="1" /><rect x="19" y="7" width="1" height="1" /><rect x="19" y="5" width="1" height="1" /><rect x="19" y="4" width="1" height="1" /><rect x="20" y="3" width="1" height="1" /><rect x="20" y="2" width="1" height="1" /><rect x="19" y="2" width="1" height="1" /><rect x="20" y="1" width="1" height="1" /><rect x="20" y="0" width="1" height="1" /><rect x="19" y="0" width="1" height="1" /><rect x="17" y="3" width="1" height="1" /><rect x="18" y="5" width="1" height="1" /><rect x="17" y="5" width="1" height="1" /><rect x="18" y="7" width="1" height="1" /><rect x="17" y="7" width="1" height="1" /><rect x="17" y="8" width="1" height="1" /><rect x="18" y="9" width="1" height="1" /><rect x="17" y="9" width="1" height="1" /><rect x="18" y="10" width="1" height="1" /><rect x="18" y="11" width="1" height="1" /><rect x="17" y="12" width="1" height="1" /><rect x="18" y="13" width="1" height="1" /><rect x="17" y="13" width="1" height="1" /><rect x="18" y="15" width="1" height="1" /><rect x="18" y="16" width="1" height="1" /><rect x="18" y="18" width="1" height="1" /><rect x="17" y="18" width="1" height="1" /><rect x="17" y="19" width="1" height="1" /><rect x="18" y="20" width="1" height="1" /><rect x="17" y="20" width="1" height="1" /><rect x="18" y="21" width="1" height="1" /><rect x="17" y="21" width="1" height="1" /><rect x="18" y="22" width="1" height="1" /><rect x="18" y="24" width="1" height="1" /><rect x="18" y="26" width="1" height="1" /><rect x="17" y="26" width="1" height="1" /><rect x="18" y="27" width="1" height="1" /><rect x="17" y="27" width="1" height="1" /><rect x="18" y="28" width="1" height="1" /><rect x="17" y="28" width="1" height="1" /><rect x="15" y="27" width="1" height="1" /><rect x="16" y="24" width="1" height="1" /><rect x="15" y="23" width="1" height="1" /><rect x="15" y="22" width="1" height="1" /><rect x="16" y="21" width="1" height="1" /><rect x="15" y="21" width="1" height="1" /><rect x="16" y="20" width="1" height="1" /><rect x="16" y="18" width="1" height="1" /><rect x="15" y="18" width="1" height="1" /><rect x="16" y="17" width="1" height="1" /><rect x="16" y="16" width="1" height="1" /><rect x="15" y="16" width="1" height="1" /><rect x="16" y="15" width="1" height="1" /><rect x="16" y="14" width="1" height="1" /><rect x="15" y="14" width="1" height="1" /><rect x="16" y="13" width="1" height="1" /><rect x="15" y="12" width="1" height="1" /><rect x="16" y="11" width="1" height="1" /><rect x="16" y="10" width="1" height="1" /><rect x="15" y="9" width="1" height="1" /><rect x="15" y="8" width="1" height="1" /><rect x="16" y="7" width="1" height="1" /><rect x="15" y="7" width="1" height="1" /><rect x="16" y="5" width="1" height="1" /><rect x="15" y="5" width="1" height="1" /><rect x="16" y="4" width="1" height="1" /><rect x="15" y="3" width="1" height="1" /><rect x="16" y="2" width="1" height="1" /><rect x="16" y="1" width="1" height="1" /><rect x="15" y="0" width="1" height="1" /><rect x="14" y="0" width="1" height="1" /><rect x="13" y="0" width="1" height="1" /><rect x="13" y="1" width="1" height="1" /><rect x="14" y="3" width="1" height="1" /><rect x="14" y="4" width="1" height="1" /><rect x="13" y="5" width="1" height="1" /><rect x="13" y="8" width="1" height="1" /><rect x="14" y="9" width="1" height="1" /><rect x="13" y="9" width="1" height="1" /><rect x="13" y="10" width="1" height="1" /><rect x="14" y="12" width="1" height="1" /><rect x="14" y="13" width="1" height="1" /><rect x="13" y="14" width="1" height="1" /><rect x="14" y="15" width="1" height="1" /><rect x="14" y="16" width="1" height="1" /><rect x="14" y="17" width="1" height="1" /><rect x="14" y="18" width="1" height="1" /><rect x="13" y="18" width="1" height="1" /><rect x="14" y="19" width="1" height="1" /><rect x="13" y="19" width="1" height="1" /><rect x="14" y="20" width="1" height="1" /><rect x="13" y="20" width="1" height="1" /><rect x="14" y="22" width="1" height="1" /><rect x="14" y="23" width="1" height="1" /><rect x="13" y="23" width="1" height="1" /><rect x="13" y="25" width="1" height="1" /><rect x="14" y="27" width="1" height="1" /><rect x="13" y="27" width="1" height="1" /><rect x="14" y="28" width="1" height="1" /><rect x="12" y="28" width="1" height="1" /><rect x="11" y="28" width="1" height="1" /><rect x="11" y="27" width="1" height="1" /><rect x="11" y="26" width="1" height="1" /><rect x="12" y="25" width="1" height="1" /><rect x="11" y="25" width="1" height="1" /><rect x="12" y="24" width="1" height="1" /><rect x="12" y="23" width="1" height="1" /><rect x="11" y="23" width="1" height="1" /><rect x="12" y="22" width="1" height="1" /><rect x="11" y="21" width="1" height="1" /><rect x="11" y="20" width="1" height="1" /><rect x="12" y="19" width="1" height="1" /><rect x="12" y="18" width="1" height="1" /><rect x="11" y="18" width="1" height="1" /><rect x="12" y="17" width="1" height="1" /><rect x="11" y="17" width="1" height="1" /><rect x="11" y="15" width="1" height="1" /><rect x="12" y="14" width="1" height="1" /><rect x="11" y="14" width="1" height="1" /><rect x="12" y="13" width="1" height="1" /><rect x="11" y="13" width="1" height="1" /><rect x="12" y="12" width="1" height="1" /><rect x="11" y="12" width="1" height="1" /><rect x="11" y="11" width="1" height="1" /><rect x="12" y="10" width="1" height="1" /><rect x="11" y="10" width="1" height="1" /><rect x="11" y="9" width="1" height="1" /><rect x="11" y="8" width="1" height="1" /><rect x="11" y="7" width="1" height="1" /><rect x="11" y="5" width="1" height="1" /><rect x="12" y="3" width="1" height="1" /><rect x="11" y="3" width="1" height="1" /><rect x="12" y="2" width="1" height="1" /><rect x="12" y="1" width="1" height="1" /><rect x="9" y="0" width="1" height="1" /><rect x="10" y="1" width="1" height="1" /><rect x="10" y="2" width="1" height="1" /><rect x="9" y="4" width="1" height="1" /><rect x="9" y="5" width="1" height="1" /><rect x="10" y="8" width="1" height="1" /><rect x="9" y="8" width="1" height="1" /><rect x="10" y="9" width="1" height="1" /><rect x="9" y="9" width="1" height="1" /><rect x="9" y="10" width="1" height="1" /><rect x="9" y="12" width="1" height="1" /><rect x="10" y="13" width="1" height="1" /><rect x="9" y="14" width="1" height="1" /><rect x="10" y="16" width="1" height="1" /><rect x="10" y="17" width="1" height="1" /><rect x="9" y="17" width="1" height="1" /><rect x="9" y="20" width="1" height="1" /><rect x="9" y="21" width="1" height="1" /><rect x="10" y="23" width="1" height="1" /><rect x="10" y="24" width="1" height="1" /><rect x="10" y="25" width="1" height="1" /><rect x="10" y="26" width="1" height="1" /><rect x="9" y="26" width="1" height="1" /><rect x="10" y="27" width="1" height="1" /><rect x="8" y="20" width="1" height="1" /><rect x="7" y="20" width="1" height="1" /><rect x="7" y="19" width="1" height="1" /><rect x="8" y="18" width="1" height="1" /><rect x="7" y="18" width="1" height="1" /><rect x="8" y="16" width="1" height="1" /><rect x="7" y="16" width="1" height="1" /><rect x="7" y="15" width="1" height="1" /><rect x="7" y="14" width="1" height="1" /><rect x="8" y="13" width="1" height="1" /><rect x="8" y="12" width="1" height="1" /><rect x="8" y="10" width="1" height="1" /><rect x="7" y="10" width="1" height="1" /><rect x="7" y="9" width="1" height="1" /><rect x="5" y="10" width="1" height="1" /><rect x="4" y="10" width="1" height="1" /><rect x="5" y="11" width="1" height="1" /><rect x="5" y="12" width="1" height="1" /><rect x="5" y="13" width="1" height="1" /><rect x="5" y="14" width="1" height="1" /><rect x="5" y="15" width="1" height="1" /><rect x="5" y="16" width="1" height="1" /><rect x="4" y="16" width="1" height="1" /><rect x="5" y="17" width="1" height="1" /><rect x="4" y="17" width="1" height="1" /><rect x="5" y="18" width="1" height="1" /><rect x="4" y="18" width="1" height="1" /><rect x="5" y="19" width="1" height="1" /><rect x="5" y="20" width="1" height="1" /><rect x="3" y="20" width="1" height="1" /><rect x="3" y="19" width="1" height="1" /><rect x="2" y="19" width="1" height="1" /><rect x="3" y="18" width="1" height="1" /><rect x="2" y="17" width="1" height="1" /><rect x="3" y="16" width="1" height="1" /><rect x="3" y="15" width="1" height="1" /><rect x="2" y="15" width="1" height="1" /><rect x="3" y="12" width="1" height="1" /><rect x="2" y="11" width="1" height="1" /><rect x="2" y="10" width="1" height="1" /><rect x="3" y="9" width="1" height="1" /><rect x="0" y="10" width="1" height="1" /><rect x="0" y="11" width="1" height="1" /><rect x="0" y="13" width="1" height="1" /><rect x="0" y="15" width="1" height="1" /><rect x="0" y="16" width="1" height="1" /><rect x="0" y="18" width="1" height="1" /><rect x="1" y="20" width="1" height="1" /></g></svg>