<svg width="77" height="77" xmlns="http://www.w3.org/2000/svg" xmlns:xlink="http://www.w3.org/1999/xlink" xml:space="preserve" overflow="hidden"><g><path d="M34.4094 24.8313C28.4374 21.0381 20.6291 21.9201 15.6539 26.95 11.9399 30.7024 9.85666 35.7687 9.8566 41.0482 9.85672 45.1856 10.8276 49.2653 12.6912 52.9592L19.7896 67.0243C21.7028 70.8165 25.5882 73.2084 29.8357 73.2084 32.651 73.2084 35.3641 72.1526 37.4394 70.2505 38.0398 69.7 38.9614 69.7 39.5618 70.2505 41.6371 72.1526 44.3502 73.2084 47.1655 73.2084 51.413 73.2084 55.2984 70.8165 57.2116 67.0243L64.31 52.9592C66.1737 49.2653 67.1446 45.1856 67.1446 41.0482 67.144 35.7685 65.0608 30.7022 61.3461 26.95 56.3709 21.9201 48.5626 21.0381 42.5906 24.8313 40.0938 26.4161 36.9062 26.4161 34.4094 24.8313Z" fill="#EA4A42"/><path d="M18.3314 51.1647C17.9337 51.1651 17.5697 50.9412 17.3906 50.586 15.9015 47.626 15.1241 44.3593 15.1203 41.0458 15.1193 39.7221 15.2953 38.4042 15.6436 37.1272 15.7887 36.5642 16.3627 36.2254 16.9257 36.3705 17.4888 36.5156 17.8276 37.0896 17.6825 37.6526 17.68 37.6624 17.6773 37.6722 17.6745 37.6819 17.3759 38.7782 17.225 39.9095 17.2257 41.0458 17.2293 44.03 17.9296 46.9722 19.2711 49.6379 19.5329 50.1571 19.3242 50.7901 18.8051 51.0519 18.6584 51.126 18.4964 51.1646 18.332 51.1647ZM18.3874 34.6139C17.806 34.6142 17.3344 34.1431 17.3341 33.5617 17.334 33.3571 17.3936 33.1568 17.5055 32.9855 18.0546 32.1456 18.6871 31.3632 19.3932 30.6502 19.8023 30.2371 20.4689 30.2339 20.882 30.643 21.2952 31.0521 21.2984 31.7187 20.8893 32.1319 20.2831 32.7442 19.7399 33.4159 19.268 34.1369 19.0739 34.4344 18.7426 34.6138 18.3874 34.6139Z" fill="#FFEFC2"/><path d="M30.7868 8.45556C34.9569 11.3372 37.4464 16.0827 37.4473 21.1515L37.4473 25.9478C38.1457 26.0452 38.8543 26.0452 39.5527 25.9478L39.5527 21.1515C39.5517 15.3913 36.7226 9.99857 31.9839 6.72366 31.5023 6.39792 30.8478 6.52431 30.5221 7.00592 30.201 7.48061 30.3187 8.12494 30.7868 8.45556Z" fill="#9E5410"/><path d="M38.5 21.1431C38.5 11.5614 46.2673 3.79378 55.8491 3.79345 55.8491 13.3752 48.0817 21.1428 38.5 21.1431Z" fill="#2EB74E"/></g></svg>