<svg width="77" height="77" xmlns="http://www.w3.org/2000/svg" xmlns:xlink="http://www.w3.org/1999/xlink" xml:space="preserve" overflow="hidden"><g><path d="M77 38.5C77 59.763 59.763 77 38.5 77 17.237 77 1.65225e-07 59.763 1.65225e-07 38.5 1.65225e-07 17.237 17.237 1.65225e-07 38.5 1.65225e-07 59.763 1.65225e-07 77 17.237 77 38.5Z" fill="#FF7A00"/><path d="M74.4871 38.5C74.4871 58.3751 58.3751 74.4871 38.5 74.4871 18.6249 74.4871 2.51289 58.3751 2.51289 38.5 2.51289 18.6249 18.6249 2.51289 38.5 2.51289 58.3751 2.51289 74.4871 18.6249 74.4871 38.5Z" fill="#FFDA7D"/><path d="M16.9431 62.0887C22.2593 66.9498 29.2211 70.0393 36.8988 70.4184L36.8988 42.1336C30.2474 48.7848 23.5956 55.4368 16.9431 62.0887Z" fill="#FFB730"/><path d="M35.1246 39.878 6.57528 39.878C6.90509 47.6515 10.0128 54.7044 14.9291 60.074L35.1246 39.878Z" fill="#FFB730"/><path d="M36.8994 34.7722 36.8994 6.58175C29.2452 6.95923 22.3016 10.0311 16.9925 14.8665 23.6282 21.5018 30.2635 28.1371 36.8994 34.7722Z" fill="#FFB730"/><path d="M14.9741 16.8762C10.0504 22.2309 6.92915 29.2677 6.57754 37.0283L35.1246 37.0283C28.408 30.3112 21.6913 23.5939 14.9741 16.8762Z" fill="#FFB730"/><path d="M60.0725 14.9307C54.6739 9.98887 47.5728 6.87411 39.749 6.57272L39.749 35.2536C46.5236 28.4791 53.298 21.7047 60.0725 14.9307Z" fill="#FFB730"/><path d="M42.0046 37.0283 70.4226 37.0283C70.0719 29.2998 66.9759 22.2897 62.0876 16.9452 55.3934 23.6395 48.6987 30.3342 42.0046 37.0283Z" fill="#FFB730"/><path d="M62.1309 60.0045C67.0123 54.6444 70.096 47.6189 70.4247 39.878L42.0046 39.878C48.7137 46.5872 55.4218 53.2958 62.1309 60.0045Z" fill="#FFB730"/><path d="M39.749 41.6522 39.749 70.4268C47.5958 70.1248 54.7155 66.9919 60.12 62.0232 53.3301 55.2327 46.5396 48.4423 39.749 41.6522Z" fill="#FFB730"/><path d="M25.4109 33.8194C25.6722 33.8637 25.8478 34.1122 25.8033 34.3729L25.8033 34.3729C25.759 34.6342 25.511 34.8103 25.2497 34.7659L16.2969 33.2402C16.0357 33.1958 15.8606 32.9474 15.9045 32.6862L15.9045 32.6862C15.9495 32.4254 16.1973 32.2493 16.4586 32.2938L25.4109 33.8194Z" fill="#FFDA7D"/><path d="M42.9008 29.2661C42.7686 29.4963 42.4752 29.5744 42.2455 29.4428L42.2455 29.4428C42.0159 29.3106 41.9366 29.0166 42.0688 28.7869L46.6018 20.9177C46.7339 20.688 47.028 20.6094 47.2581 20.7416L47.2581 20.7416C47.4873 20.8738 47.5659 21.1672 47.4337 21.3968L42.9008 29.2661Z" fill="#FFDA7D"/><path d="M42.8414 21.4862C42.7868 21.7464 42.5319 21.9112 42.2729 21.8566L42.2729 21.8566C42.0138 21.802 41.8473 21.5466 41.9025 21.2875L43.7864 12.4031C43.8421 12.144 44.097 11.9786 44.3555 12.0331L44.3555 12.0331C44.614 12.0883 44.7805 12.3431 44.7249 12.6022L42.8414 21.4862Z" fill="#FFDA7D"/><path d="M20.5762 28.1955C20.816 28.3095 20.9177 28.5959 20.8041 28.8352L20.8041 28.8352C20.6902 29.0745 20.4037 29.1768 20.165 29.0632L14.7258 26.6809C14.4859 26.5673 14.3842 26.2804 14.4982 26.0411L14.4982 26.0411C14.6122 25.8023 14.8981 25.7 15.1374 25.8135L20.5762 28.1955Z" fill="#FFDA7D"/><path d="M35.5952 29.3642C35.7119 29.6024 35.614 29.8899 35.3762 30.0066L35.3762 30.0066C35.1384 30.1239 34.8504 30.0254 34.7337 29.7877L31.953 24.5406C31.8357 24.3029 31.9354 24.0155 32.173 23.8982L32.173 23.8982C32.4108 23.7821 32.6977 23.8794 32.8144 24.1177L35.5952 29.3642Z" fill="#FFDA7D"/><path d="M33.7273 19.288C33.844 19.5263 33.7461 19.8138 33.5083 19.9305L33.5083 19.9305C33.2706 20.0478 32.9826 19.9498 32.8665 19.7116L30.0857 14.4645C29.9684 14.2268 30.0675 13.9388 30.3053 13.8216L30.3053 13.8216C30.5431 13.7055 30.8305 13.8034 30.9472 14.0412L33.7273 19.288Z" fill="#FFDA7D"/><path d="M49.7774 33.5378C49.5279 33.6284 49.2527 33.4998 49.1623 33.2509L49.1623 33.2509C49.0718 33.002 49.2004 32.7262 49.4499 32.6358L57.9857 29.535C58.2346 29.4445 58.5098 29.5735 58.6008 29.8225L58.6008 29.8225C58.6901 30.0714 58.5623 30.3473 58.3132 30.4376L49.7774 33.5378Z" fill="#FFDA7D"/><path d="M41.1747 46.9063C41.1352 46.6434 41.3155 46.3998 41.5779 46.3602L41.5779 46.3602C41.8397 46.3211 42.0844 46.5026 42.124 46.7645L43.4623 55.7468C43.5014 56.0091 43.3199 56.2533 43.0576 56.2923L43.0576 56.2923C42.7958 56.3308 42.5517 56.1498 42.5126 55.8886L41.1747 46.9063Z" fill="#FFDA7D"/><path d="M46.0545 52.965C45.9357 52.7278 46.0331 52.4398 46.2691 52.3221L46.2691 52.3221C46.5063 52.2037 46.7943 52.3001 46.9137 52.5373L50.9583 60.6684C51.0761 60.9055 50.9792 61.1941 50.742 61.3119L50.742 61.3119C50.5049 61.4296 50.2173 61.3332 50.0985 61.0956L46.0545 52.965Z" fill="#FFDA7D"/><path d="M55.6301 35.4693C55.3651 35.4892 55.1354 35.2905 55.1156 35.0259L55.1156 35.0259C55.0963 34.7614 55.295 34.5313 55.5589 34.5121L61.4651 33.8932C61.7291 33.8733 61.9593 34.0726 61.979 34.337L61.979 34.337C61.9978 34.6015 61.8002 34.8312 61.5352 34.8504L55.6301 35.4693Z" fill="#FFDA7D"/><path d="M47.8314 42.6015C47.6028 42.4666 47.5267 42.1727 47.6605 41.9441L47.6605 41.9441C47.7948 41.7155 48.0899 41.639 48.3179 41.7733L53.5281 44.6225C53.7566 44.7563 53.8321 45.0512 53.6972 45.2798L53.6972 45.2798C53.5634 45.5078 53.2695 45.5845 53.0409 45.4507L47.8314 42.6015Z" fill="#FFDA7D"/><path d="M55.2001 48.9519C54.9705 48.8176 54.895 48.5236 55.0293 48.295L55.0293 48.295C55.1625 48.0664 55.4576 47.9893 55.6862 48.1237L60.8957 50.9729C61.1249 51.1072 61.1998 51.4017 61.0666 51.6309L61.0666 51.6309C60.9311 51.8584 60.6372 51.935 60.4097 51.8005L55.2001 48.9519Z" fill="#FFDA7D"/><path d="M30.1698 41.2492C30.4306 41.201 30.6799 41.3734 30.7287 41.6346L30.7287 41.6346C30.7757 41.8948 30.6034 42.1453 30.3421 42.193L21.408 43.8254C21.1478 43.8731 20.8972 43.7001 20.8496 43.4393L20.8496 43.4393C20.8025 43.1791 20.9748 42.9286 21.2356 42.8815L30.1698 41.2492Z" fill="#FFDA7D"/><path d="M24.2749 46.3259C24.5089 46.199 24.799 46.2874 24.9249 46.5192L24.9249 46.5192C25.0508 46.7526 24.9634 47.0439 24.7306 47.1707L16.7365 51.4799C16.5025 51.6051 16.2118 51.5179 16.0861 51.2845L16.0861 51.2845C15.9602 51.0511 16.047 50.7604 16.2804 50.6345L24.2749 46.3259Z" fill="#FFDA7D"/><path d="M34.6904 47.7607C34.8174 47.5279 35.1091 47.4421 35.3419 47.5685L35.3419 47.5685C35.5753 47.6948 35.6615 47.9872 35.5341 48.2195L32.8573 53.5207C32.731 53.7535 32.4386 53.8388 32.2052 53.7118L32.2052 53.7118C31.9728 53.5855 31.8867 53.2942 32.0136 53.0614L34.6904 47.7607Z" fill="#FFDA7D"/><path d="M28.5857 55.334C28.7127 55.1005 29.0034 55.0154 29.2362 55.1418L29.2362 55.1418C29.4696 55.2676 29.5557 55.5598 29.4284 55.7928L26.7521 61.0934C26.6252 61.3268 26.3335 61.4114 26.1 61.2856L26.1 61.2856C25.8683 61.1582 25.782 60.8669 25.9089 60.6351L28.5857 55.334Z" fill="#FFDA7D"/></g></svg>