<svg width="77" height="77" xmlns="http://www.w3.org/2000/svg" xmlns:xlink="http://www.w3.org/1999/xlink" xml:space="preserve" overflow="hidden"><defs><clipPath id="clip0"><rect x="0" y="0" width="77" height="77"/></clipPath></defs><g clip-path="url(#clip0)"><path d="M21.1276 49.1051 31.687 62.011C32.0743 62.4844 32.7555 62.6204 33.2774 62.3016 37.2181 59.8944 39.846 56.5926 39.846 56.5926Z" fill="#FFC269"/><path d="M37.8321 14.8533 26.8255 24.7593C26.4081 25.1348 26.2931 25.7428 26.5441 26.245L28.615 30.3866 47.3335 26.6429C47.3335 26.6429 44.6967 19.0149 39.4229 14.7817 38.9564 14.4073 38.2768 14.4531 37.8321 14.8533Z" fill="#ADA7AE"/><path d="M56.3965 34.4395 19.5413 35.7554C18.9029 36.3449 17.4376 36.5445 16.5795 36.6143 15.8964 36.6697 15.1791 36.5327 14.4832 36.1587 13.6788 35.7263 13.1008 34.967 12.7497 34.1239 9.69689 26.7939 4.35742 24.1966 1.62693 23.3194 0.771504 23.0445-0.0878281 23.7449 0.00706836 24.6383 0.587426 30.1046 3.65675 34.838 3.65675 41.6176 3.65675 42.3055 3.62517 42.9723 3.56772 43.6211L8.17102 46.6712 18.6484 43.2624C25.462 49.5543 35.2654 53.8398 45.6436 53.8398 61.585 53.8398 63.0137 41.6582 63.0137 41.6582 63.3301 41.2216 56.7129 34.876 56.3965 34.4395Z" fill="#C8C5C9"/><path d="M61.0604 47.8572 58.5647 47.8572C49.2054 52.6408 33.1617 51.3586 21.6475 43.2815 15.9692 39.2981 6.77811 42.3518 3.56772 43.6213 3.08963 48.9914 0.84309 53.1289 0.13084 57.6599L1.40044 59.1599C4.13078 58.2827 9.09111 56.1695 12.144 48.8394 12.4951 47.9964 13.182 46.6023 13.9863 46.1699 15.5567 45.3259 17.8527 45.7126 18.9993 46.7715 25.8129 53.0635 35.0836 56.8977 45.4616 56.8977 52.7591 56.8977 58.5976 54.6129 64.367 51.2832Z" fill="#FFC269"/><path d="M45.4617 25.395C35.0837 25.395 25.6936 29.289 18.88 35.5811 18.4462 35.9817 17.9356 36.2816 17.384 36.4553L16.5807 36.6261 57.374 36.6261 61.925 28.8992C56.9544 26.6513 51.367 25.395 45.4617 25.395Z" fill="#B6B1B7"/><path d="M45.4617 55.3447C36.0629 55.3447 27.224 51.9624 20.5733 45.8207 19.3811 44.7199 17.8589 44.1135 16.287 44.1135 15.2504 44.1135 14.2458 44.3708 13.3016 44.8784 12.0436 45.5545 11.0561 46.6865 10.446 48.1518 7.82949 54.434 3.38785 56.7141 0.928211 57.5189 0.78534 57.5504 0.491777 57.6001 0.13099 57.6599 0.0818125 57.9723 0.0407559 58.2804 0.00721875 58.5971-0.0876777 59.4906 0.771654 60.191 1.62708 59.9161 4.35742 59.0388 9.69704 56.4417 12.7498 49.1114 13.1008 48.2685 13.6788 47.5092 14.4831 47.0769 16.0534 46.2329 17.7333 46.5957 18.8799 47.6544 25.6935 53.9465 35.0836 57.8405 45.4616 57.8405 51.3635 57.8405 56.9547 56.5782 61.926 54.3348L63.6124 50.6779C58.143 53.7248 51.884 55.3447 45.4617 55.3447Z" fill="#FFA95F"/><path d="M76.7627 40.8796C73.6329 36.5612 69.4898 32.9223 64.652 30.2616L63.2653 29.5415C58.9796 31.864 56.0688 36.4007 56.0688 41.6177 56.0688 46.8348 58.8268 51.1648 63.1123 53.4875 63.5776 53.2556 64.1986 53.225 64.652 52.976 69.4937 50.3148 73.6311 46.677 76.7627 42.356 77.0791 41.9193 77.0791 41.3161 76.7627 40.8796Z" fill="#B6B1B7"/><path d="M67.3 39.1219C67.3 40.5002 66.1826 41.6176 64.8042 41.6176 63.4259 41.6176 62.3085 40.5002 62.3085 39.1219 62.3085 37.7435 63.4259 36.6261 64.8042 36.6261 66.1826 36.6261 67.3 37.7435 67.3 39.1219Z" fill="#4B3F4E"/><path d="M66.9344 38.2397C66.9344 38.9289 66.3756 39.4876 65.6864 39.4876 64.9972 39.4876 64.4385 38.9289 64.4385 38.2397 64.4385 37.5505 64.9972 36.9917 65.6864 36.9917 66.3756 36.9917 66.9344 37.5504 66.9344 38.2397Z" fill="#FFFFFF"/><path d="M57.3167 41.6177C57.3167 36.5791 60.3426 32.2301 64.652 30.2616 63.7676 29.7754 62.8541 29.3185 61.925 28.8992 57.6747 31.5443 54.821 36.2533 54.821 41.6177 54.821 46.9822 57.6759 51.6897 61.9262 54.3348 62.8556 53.9155 63.7676 53.4624 64.652 52.976 60.3426 51.0074 57.3167 46.6564 57.3167 41.6177Z" fill="#9B959D"/></g></svg>