<svg width="77" height="77" xmlns="http://www.w3.org/2000/svg" xmlns:xlink="http://www.w3.org/1999/xlink" xml:space="preserve" overflow="hidden"><g><path d="M41.5215 74.4557 53.5561 27.9128 23.4439 27.9128 35.4785 74.4557C36.3557 77.8481 40.6443 77.8481 41.5215 74.4557L53.5561 27.9128 23.4439 27.9128 35.4785 74.4557C36.3557 77.8481 40.6443 77.8481 41.5215 74.4557Z" fill="#FBEDCE"/><path d="M48.8871 27.9128 36.8525 74.4557C36.7072 75.0175 36.4669 75.4843 36.1655 75.86 37.684 77.753 40.7895 77.2862 41.5215 74.4557L53.5561 27.9128Z" fill="#F4DAA7"/><path d="M30.8074 56.3904 31.483 59.0036 50.3261 40.4043 51.465 36Z" fill="#F4DAA7"/><path d="M34.3732 70.1809 45.4416 59.2947 46.5771 54.9036 33.6982 67.5702Z" fill="#F4DAA7"/><path d="M45.1959 42.1881 44.0571 46.5924 50.3261 40.4043 50.8102 38.5319 51.465 36Z" fill="#F1CD88"/><path d="M45.4416 59.2947 46.577 54.9036 40.3156 61.0618 39.1803 65.4528Z" fill="#F1CD88"/><path d="M29.6567 51.94 33.6039 47.9928C34.0597 47.5369 34.0597 46.7978 33.6039 46.342 33.1479 45.8861 32.4089 45.8861 31.9531 46.342L28.9784 49.3166Z" fill="#F4DAA7"/><path d="M37.8907 32.1977 32.7895 37.2991C32.3336 37.755 32.3336 38.4941 32.7895 38.9498 33.0175 39.1776 33.3163 39.2917 33.6149 39.2917 33.9136 39.2917 34.2124 39.1778 34.4404 38.9498L39.5417 33.8484C39.9975 33.3925 39.9975 32.6534 39.5417 32.1976 39.0857 31.742 38.3467 31.742 37.8907 32.1977Z" fill="#F4DAA7"/><path d="M54.5922 27.0269C54.7103 26.2366 54.7743 25.4284 54.7743 24.6051 54.7743 15.617 47.4881 8.33082 38.5 8.33082 29.5119 8.33082 22.2257 15.617 22.2257 24.6051 22.2257 25.4284 22.2897 26.2364 22.4078 27.0269 20.6221 27.4825 19.3017 29.1015 19.3017 31.0291 19.3017 33.3102 21.1509 35.1595 23.4321 35.1595 25.1095 35.1595 26.5524 34.1589 27.199 32.7225 27.8459 34.1589 29.2886 35.1595 30.966 35.1595 32.6435 35.1595 34.0864 34.1589 34.733 32.7225 35.3797 34.1589 36.8226 35.1595 38.5 35.1595 40.1774 35.1595 41.6203 34.1589 42.267 32.7225 42.9136 34.1589 44.3565 35.1595 46.034 35.1595 47.7114 35.1595 49.1543 34.1589 49.801 32.7225 50.4478 34.1589 51.8905 35.1595 53.5679 35.1595 55.8491 35.1595 57.6983 33.3102 57.6983 31.0291 57.6983 29.1015 56.3779 27.4825 54.5922 27.0269Z" fill="#FFE06F"/><path d="M54.5922 27.0269C54.7103 26.2366 54.7743 25.4284 54.7743 24.6051 54.7743 15.617 47.4881 8.33082 38.5 8.33082 37.7072 8.33082 36.9279 8.38872 36.1655 8.49828 44.0473 9.63068 50.1052 16.41 50.1052 24.6051L50.1052 24.6298C50.1032 25.8979 50.6621 27.0842 51.6167 27.9189 52.4825 28.6759 53.0294 29.7887 53.0294 31.0291 53.0294 32.443 52.3187 33.6904 51.2353 34.4348 51.9879 34.9518 52.9189 35.2278 53.9192 35.1447 55.8488 34.9842 57.4361 33.4641 57.6675 31.5419 57.926 29.394 56.5342 27.5223 54.5922 27.0269Z" fill="#FFD05C"/><path d="M54.5922 18.6959C54.7103 17.9056 54.7743 17.0974 54.7743 16.2741 54.7743 7.2862 47.4881 0 38.5 0 29.5119 0 22.2257 7.2862 22.2257 16.2743 22.2257 17.0976 22.2897 17.9056 22.4078 18.6961 20.6221 19.1516 19.3017 20.7707 19.3017 22.6982 19.3017 24.9794 21.1509 26.8286 23.4321 26.8286 25.1095 26.8286 26.5524 25.8281 27.199 24.3917 27.8459 25.8281 29.2886 26.8286 30.966 26.8286 32.6435 26.8286 34.0864 25.8281 34.733 24.3917 35.3797 25.8281 36.8226 26.8286 38.5 26.8286 40.1774 26.8286 41.6203 25.8281 42.267 24.3917 42.9136 25.8281 44.3565 26.8286 46.034 26.8286 47.7114 26.8286 49.1543 25.8281 49.801 24.3917 50.4478 25.8281 51.8905 26.8286 53.5679 26.8286 55.8491 26.8286 57.6983 24.9794 57.6983 22.6982 57.6983 20.7706 56.3779 19.1516 54.5922 18.6959Z" fill="#FFC1C7"/><path d="M54.5922 18.6959C54.7103 17.9056 54.7743 17.0974 54.7743 16.2743 54.7743 7.2862 47.4881 0 38.5 0 37.7072 0 36.9279 0.0578961 36.1655 0.167307 44.0473 1.29971 50.1052 8.079 50.1052 16.2741L50.1052 16.2989C50.1032 17.567 50.6621 18.7532 51.6167 19.5879 52.4825 20.3449 53.0294 21.4577 53.0294 22.6981 53.0294 24.112 52.3187 25.3594 51.2353 26.1038 51.9879 26.6209 52.9191 26.897 53.9194 26.8137 55.8488 26.6532 57.4361 25.133 57.6674 23.2106 57.9259 21.0628 56.5342 19.1915 54.5922 18.6959Z" fill="#FFB3BA"/><path d="M33.8151 13.8734C33.8151 14.5181 33.2925 15.0407 32.6478 15.0407 32.0032 15.0407 31.4806 14.5181 31.4806 13.8734 31.4806 13.2288 32.0032 12.7062 32.6478 12.7062 33.2925 12.7062 33.8151 13.2288 33.8151 13.8734Z" fill="#FFB3BA"/><path d="M45.6508 8.33082C45.6508 8.97548 45.1282 9.49808 44.4835 9.49808 43.8389 9.49808 43.3163 8.97548 43.3163 8.33082 43.3163 7.68616 43.8389 7.16356 44.4835 7.16356 45.1282 7.16356 45.6508 7.68616 45.6508 8.33082Z" fill="#FFB3BA"/><path d="M46.8181 18.1209C46.8181 18.7655 46.2955 19.2881 45.6508 19.2881 45.0061 19.2881 44.4835 18.7655 44.4835 18.1209 44.4835 17.4762 45.0061 16.9536 45.6508 16.9536 46.2955 16.9536 46.8181 17.4762 46.8181 18.1209Z" fill="#FFB3BA"/></g></svg>