<svg width="77" height="77" xmlns="http://www.w3.org/2000/svg" xmlns:xlink="http://www.w3.org/1999/xlink" xml:space="preserve" overflow="hidden"><defs><clipPath id="clip0"><rect x="0" y="0" width="77" height="77"/></clipPath></defs><g clip-path="url(#clip0)"><path d="M61.9181 53.5002C61.9181 63.6596 55.4915 72.3152 46.4954 75.5939 44.4777 76.3301 42.3308 76.7951 40.0971 76.9464 39.96 76.9559 39.8213 76.9653 39.6826 76.9716 39.2916 76.9905 38.8975 77 38.5003 77 38.1031 77 37.709 76.9905 37.3181 76.9716 24.9329 76.3521 15.0825 66.0793 15.0825 53.5002 15.0825 53.092 15.0936 52.6869 15.1141 52.2833 15.1818 50.9356 15.3631 49.6178 15.65 48.3394 16.3341 45.2687 17.6188 42.4266 19.3717 39.9392 19.8288 39.2913 20.2308 38.6166 20.5744 37.9231 20.9559 37.1554 21.2649 36.3641 21.5029 35.5586 22.4014 32.5195 22.2753 29.2659 21.0284 26.2583 20.9228 26.003 20.8235 25.7476 20.7289 25.4859L20.7289 25.4843C20.3884 24.5512 20.1204 23.5833 19.9297 22.5855 19.7043 21.419 19.5876 20.2131 19.5876 18.9789 19.5876 8.89674 27.422 0.649443 37.3181 0.0378316 37.709 0.0126105 38.1031-3.04512e-15 38.5003-3.04512e-15 38.8975-3.04512e-15 39.2916 0.0126105 39.6826 0.0378316 39.7582 0.0425606 39.8339 0.0472896 39.9095 0.0551711 41.9619 0.204921 43.9229 0.685699 45.7403 1.44233 52.5926 4.29389 57.4114 11.0721 57.4114 18.9789 57.4114 20.2116 57.2948 21.4174 57.0693 22.5839 56.8802 23.5817 56.6106 24.5512 56.2702 25.4859 56.1756 25.746 56.0763 26.0045 55.9707 26.2583 54.7238 29.2659 54.5977 32.521 55.4962 35.5586 55.7342 36.3657 56.0447 37.1554 56.4246 37.9231 56.7683 38.6166 57.1702 39.2913 57.6274 39.9392 59.3802 42.425 60.6649 45.2671 61.3506 48.3362 61.6359 49.6146 61.8188 50.934 61.8866 52.2818 61.9071 52.6853 61.9181 53.092 61.9181 53.5002Z" fill="#FFCA5E"/><path d="M38.3231 76.998C25.4714 76.9034 15.0819 66.4193 15.0819 53.4998 15.0819 48.4492 16.6708 43.7707 19.3726 39.9403 22.2431 35.8702 22.9052 30.785 21.0294 26.2578 20.1009 24.0163 19.587 21.5573 19.587 18.9784 19.587 8.49746 28.055 0.00110342 38.4997 0.00110342 32.3836 0.00110342 27.4261 8.49746 27.4261 18.9784 27.4261 21.5573 27.7271 24.0163 28.271 26.2578 29.3681 30.785 28.9819 35.8702 27.2999 39.9403 25.7189 43.7707 24.7889 48.4492 24.7889 53.4998 24.7889 66.3783 30.8309 76.8356 38.3231 76.998Z" fill="#E8A328"/><path d="M57.0693 22.5839C56.8802 23.5817 56.6106 24.5512 56.2702 25.4859L56.1645 25.3078C53.8253 21.3828 46.56 18.6415 38.5003 18.6415 30.4406 18.6415 23.1769 21.3812 20.8361 25.3062L20.7289 25.4843C20.3884 24.5512 20.1204 23.5833 19.9297 22.5855 23.3803 18.755 30.5147 16.2771 38.5003 16.2771 46.4844 16.2771 53.6204 18.7535 57.0693 22.5839Z" fill="#E8A328"/><path d="M61.8866 52.2818C60.274 54.3609 57.7566 56.2052 54.5362 57.6334 50.0374 59.6258 44.3437 60.7245 38.5003 60.7245 32.6569 60.7245 26.9617 59.6258 22.4629 57.6334 19.2424 56.2068 16.7266 54.3625 15.1141 52.2833 15.1818 50.9356 15.3631 49.6178 15.65 48.3394L15.7824 48.7082C16.7109 51.2981 19.4237 53.7004 23.4213 55.4722 27.6237 57.3339 32.9785 58.36 38.5003 58.36 44.0206 58.36 49.3753 57.3339 53.5778 55.4722 57.5753 53.7004 60.2882 51.2981 61.2166 48.7082L61.3506 48.3362C61.6359 49.6146 61.8188 50.934 61.8866 52.2818Z" fill="#E8A328"/><path d="M53.3934 54.0157C53.3934 60.7072 51.9132 67.0188 49.2256 71.784 48.3964 73.2531 47.4806 74.5268 46.4954 75.5939 44.4777 76.3301 42.3308 76.7951 40.0971 76.9464 42.7248 76.3143 45.1902 74.1232 47.1653 70.6222 49.6575 66.2054 51.0289 60.3068 51.0289 54.0157 51.0289 49.1039 50.1903 44.4049 48.6014 40.4278 46.8233 35.9747 46.4402 30.4182 47.5783 25.5679 48.1174 23.268 48.3917 20.8263 48.3917 18.3089 48.3917 13.2663 47.293 8.54207 45.3006 5.00954 43.781 2.31719 41.9052 0.605306 39.9095 0.0551711 41.9619 0.204921 43.9229 0.685699 45.7403 1.44233 46.3157 2.15483 46.858 2.95717 47.3592 3.84779 49.5503 7.72869 50.7562 12.8659 50.7562 18.3089 50.7562 21.0076 50.4614 23.6306 49.8798 26.107 48.8488 30.5049 49.1925 35.5302 50.7972 39.5514 52.4964 43.8043 53.3934 48.806 53.3934 54.0157Z" fill="#E8A328"/><path d="M56.4246 37.9231 20.5744 37.9231C20.9559 37.1554 21.2649 36.3641 21.5029 35.5586L55.4962 35.5586C55.7342 36.3657 56.0447 37.1554 56.4246 37.9231Z" fill="#E8A328"/><path d="M39.6826 0.0378316 39.6826 76.9716C39.2916 76.9905 38.8975 77 38.5003 77 38.1031 77 37.709 76.9905 37.3181 76.9716L37.3181 0.0378316C37.709 0.0126105 38.1031 0 38.5003 0 38.8975 0 39.2916 0.0126105 39.6826 0.0378316Z" fill="#E8A328"/></g></svg>